<mxfile host="app.diagrams.net" modified="2024-03-19T13:43:28.106Z" agent="Mozilla/5.0 (Windows NT 10.0; Win64; x64) AppleWebKit/537.36 (KHTML, like Gecko) Chrome/122.0.0.0 Safari/537.36" etag="CCOpADYYD3zN4T7gFpkM" version="24.0.7" type="device" pages="32">
  <diagram name="Etapa 1" id="K4wjx_W4KJOcCPrvj9iq">
    <mxGraphModel dx="1434" dy="780" grid="1" gridSize="10" guides="1" tooltips="1" connect="1" arrows="1" fold="1" page="1" pageScale="1" pageWidth="827" pageHeight="1169" math="0" shadow="0">
      <root>
        <mxCell id="0" />
        <mxCell id="1" parent="0" />
        <mxCell id="QFBzBQTJSK2TqnD9Sk6t-1" value="" style="endArrow=classic;html=1;rounded=0;" edge="1" parent="1">
          <mxGeometry width="50" height="50" relative="1" as="geometry">
            <mxPoint x="410" y="250" as="sourcePoint" />
            <mxPoint x="410" y="330" as="targetPoint" />
          </mxGeometry>
        </mxCell>
        <mxCell id="QFBzBQTJSK2TqnD9Sk6t-2" value="" style="endArrow=none;html=1;rounded=0;" edge="1" parent="1">
          <mxGeometry width="50" height="50" relative="1" as="geometry">
            <mxPoint x="370" y="340" as="sourcePoint" />
            <mxPoint x="450" y="340" as="targetPoint" />
          </mxGeometry>
        </mxCell>
        <mxCell id="QFBzBQTJSK2TqnD9Sk6t-3" value="" style="endArrow=none;html=1;rounded=0;" edge="1" parent="1">
          <mxGeometry width="50" height="50" relative="1" as="geometry">
            <mxPoint x="380" y="350" as="sourcePoint" />
            <mxPoint x="440" y="350" as="targetPoint" />
            <Array as="points">
              <mxPoint x="420" y="350" />
            </Array>
          </mxGeometry>
        </mxCell>
        <mxCell id="QFBzBQTJSK2TqnD9Sk6t-4" value="" style="endArrow=none;html=1;rounded=0;" edge="1" parent="1">
          <mxGeometry width="50" height="50" relative="1" as="geometry">
            <mxPoint x="390" y="360" as="sourcePoint" />
            <mxPoint x="430" y="360" as="targetPoint" />
          </mxGeometry>
        </mxCell>
        <mxCell id="QFBzBQTJSK2TqnD9Sk6t-5" value="TOPO" style="text;html=1;align=center;verticalAlign=middle;whiteSpace=wrap;rounded=0;fontSize=16;" vertex="1" parent="1">
          <mxGeometry x="380" y="220" width="60" height="30" as="geometry" />
        </mxCell>
      </root>
    </mxGraphModel>
  </diagram>
  <diagram name="Etapa 2.1" id="YrLjiMs0Npf3KO89KFAI">
    <mxGraphModel dx="1434" dy="780" grid="1" gridSize="10" guides="1" tooltips="1" connect="1" arrows="1" fold="1" page="1" pageScale="1" pageWidth="827" pageHeight="1169" math="0" shadow="0">
      <root>
        <mxCell id="oVwlgTrbnYSWjBX-mMcC-0" />
        <mxCell id="oVwlgTrbnYSWjBX-mMcC-1" parent="oVwlgTrbnYSWjBX-mMcC-0" />
        <mxCell id="oVwlgTrbnYSWjBX-mMcC-2" value="" style="endArrow=classic;html=1;rounded=0;" edge="1" parent="oVwlgTrbnYSWjBX-mMcC-1">
          <mxGeometry width="50" height="50" relative="1" as="geometry">
            <mxPoint x="410" y="250" as="sourcePoint" />
            <mxPoint x="410" y="330" as="targetPoint" />
          </mxGeometry>
        </mxCell>
        <mxCell id="oVwlgTrbnYSWjBX-mMcC-3" value="" style="endArrow=none;html=1;rounded=0;" edge="1" parent="oVwlgTrbnYSWjBX-mMcC-1">
          <mxGeometry width="50" height="50" relative="1" as="geometry">
            <mxPoint x="370" y="340" as="sourcePoint" />
            <mxPoint x="450" y="340" as="targetPoint" />
          </mxGeometry>
        </mxCell>
        <mxCell id="oVwlgTrbnYSWjBX-mMcC-4" value="" style="endArrow=none;html=1;rounded=0;" edge="1" parent="oVwlgTrbnYSWjBX-mMcC-1">
          <mxGeometry width="50" height="50" relative="1" as="geometry">
            <mxPoint x="380" y="350" as="sourcePoint" />
            <mxPoint x="440" y="350" as="targetPoint" />
            <Array as="points">
              <mxPoint x="420" y="350" />
            </Array>
          </mxGeometry>
        </mxCell>
        <mxCell id="oVwlgTrbnYSWjBX-mMcC-5" value="" style="endArrow=none;html=1;rounded=0;" edge="1" parent="oVwlgTrbnYSWjBX-mMcC-1">
          <mxGeometry width="50" height="50" relative="1" as="geometry">
            <mxPoint x="390" y="360" as="sourcePoint" />
            <mxPoint x="430" y="360" as="targetPoint" />
          </mxGeometry>
        </mxCell>
        <mxCell id="oVwlgTrbnYSWjBX-mMcC-6" value="TOPO" style="text;html=1;align=center;verticalAlign=middle;whiteSpace=wrap;rounded=0;fontSize=16;" vertex="1" parent="oVwlgTrbnYSWjBX-mMcC-1">
          <mxGeometry x="380" y="220" width="60" height="30" as="geometry" />
        </mxCell>
        <mxCell id="549ysNP1tQb_sancoklk-0" value="" style="whiteSpace=wrap;html=1;aspect=fixed;fontStyle=1" vertex="1" parent="oVwlgTrbnYSWjBX-mMcC-1">
          <mxGeometry x="550" y="220" width="80" height="80" as="geometry" />
        </mxCell>
        <mxCell id="549ysNP1tQb_sancoklk-1" value="12" style="text;html=1;align=center;verticalAlign=middle;whiteSpace=wrap;rounded=0;fontSize=16;fontStyle=1" vertex="1" parent="oVwlgTrbnYSWjBX-mMcC-1">
          <mxGeometry x="560" y="245" width="60" height="30" as="geometry" />
        </mxCell>
        <mxCell id="549ysNP1tQb_sancoklk-2" value="" style="endArrow=none;html=1;rounded=0;fontStyle=1" edge="1" parent="oVwlgTrbnYSWjBX-mMcC-1">
          <mxGeometry width="50" height="50" relative="1" as="geometry">
            <mxPoint x="550" y="340" as="sourcePoint" />
            <mxPoint x="630" y="340" as="targetPoint" />
          </mxGeometry>
        </mxCell>
        <mxCell id="549ysNP1tQb_sancoklk-3" value="" style="endArrow=none;html=1;rounded=0;fontStyle=1" edge="1" parent="oVwlgTrbnYSWjBX-mMcC-1">
          <mxGeometry width="50" height="50" relative="1" as="geometry">
            <mxPoint x="560" y="350" as="sourcePoint" />
            <mxPoint x="620" y="350" as="targetPoint" />
            <Array as="points">
              <mxPoint x="600" y="350" />
            </Array>
          </mxGeometry>
        </mxCell>
        <mxCell id="549ysNP1tQb_sancoklk-4" value="" style="endArrow=none;html=1;rounded=0;fontStyle=1" edge="1" parent="oVwlgTrbnYSWjBX-mMcC-1">
          <mxGeometry width="50" height="50" relative="1" as="geometry">
            <mxPoint x="570" y="360" as="sourcePoint" />
            <mxPoint x="610" y="360" as="targetPoint" />
          </mxGeometry>
        </mxCell>
        <mxCell id="549ysNP1tQb_sancoklk-5" value="" style="endArrow=classic;html=1;rounded=0;exitX=0.5;exitY=1;exitDx=0;exitDy=0;fontStyle=1" edge="1" parent="oVwlgTrbnYSWjBX-mMcC-1" source="549ysNP1tQb_sancoklk-0">
          <mxGeometry width="50" height="50" relative="1" as="geometry">
            <mxPoint x="566" y="360" as="sourcePoint" />
            <mxPoint x="590" y="330" as="targetPoint" />
          </mxGeometry>
        </mxCell>
      </root>
    </mxGraphModel>
  </diagram>
  <diagram name="Etapa 2.2" id="GdXr57XFWJKJdVcNsY0E">
    <mxGraphModel dx="1434" dy="780" grid="1" gridSize="10" guides="1" tooltips="1" connect="1" arrows="1" fold="1" page="1" pageScale="1" pageWidth="827" pageHeight="1169" math="0" shadow="0">
      <root>
        <mxCell id="XJmmUtHrJqsa_5hOQ3wF-0" />
        <mxCell id="XJmmUtHrJqsa_5hOQ3wF-1" parent="XJmmUtHrJqsa_5hOQ3wF-0" />
        <mxCell id="XJmmUtHrJqsa_5hOQ3wF-2" value="" style="endArrow=classic;html=1;rounded=0;" edge="1" parent="XJmmUtHrJqsa_5hOQ3wF-1">
          <mxGeometry width="50" height="50" relative="1" as="geometry">
            <mxPoint x="410" y="250" as="sourcePoint" />
            <mxPoint x="410" y="330" as="targetPoint" />
          </mxGeometry>
        </mxCell>
        <mxCell id="XJmmUtHrJqsa_5hOQ3wF-3" value="" style="endArrow=none;html=1;rounded=0;" edge="1" parent="XJmmUtHrJqsa_5hOQ3wF-1">
          <mxGeometry width="50" height="50" relative="1" as="geometry">
            <mxPoint x="370" y="340" as="sourcePoint" />
            <mxPoint x="450" y="340" as="targetPoint" />
          </mxGeometry>
        </mxCell>
        <mxCell id="XJmmUtHrJqsa_5hOQ3wF-4" value="" style="endArrow=none;html=1;rounded=0;" edge="1" parent="XJmmUtHrJqsa_5hOQ3wF-1">
          <mxGeometry width="50" height="50" relative="1" as="geometry">
            <mxPoint x="380" y="350" as="sourcePoint" />
            <mxPoint x="440" y="350" as="targetPoint" />
            <Array as="points">
              <mxPoint x="420" y="350" />
            </Array>
          </mxGeometry>
        </mxCell>
        <mxCell id="XJmmUtHrJqsa_5hOQ3wF-5" value="" style="endArrow=none;html=1;rounded=0;" edge="1" parent="XJmmUtHrJqsa_5hOQ3wF-1">
          <mxGeometry width="50" height="50" relative="1" as="geometry">
            <mxPoint x="390" y="360" as="sourcePoint" />
            <mxPoint x="430" y="360" as="targetPoint" />
          </mxGeometry>
        </mxCell>
        <mxCell id="XJmmUtHrJqsa_5hOQ3wF-6" value="TOPO" style="text;html=1;align=center;verticalAlign=middle;whiteSpace=wrap;rounded=0;fontSize=16;" vertex="1" parent="XJmmUtHrJqsa_5hOQ3wF-1">
          <mxGeometry x="380" y="220" width="60" height="30" as="geometry" />
        </mxCell>
        <mxCell id="XJmmUtHrJqsa_5hOQ3wF-7" value="" style="whiteSpace=wrap;html=1;aspect=fixed;fontStyle=1" vertex="1" parent="XJmmUtHrJqsa_5hOQ3wF-1">
          <mxGeometry x="550" y="220" width="80" height="80" as="geometry" />
        </mxCell>
        <mxCell id="XJmmUtHrJqsa_5hOQ3wF-8" value="12" style="text;html=1;align=center;verticalAlign=middle;whiteSpace=wrap;rounded=0;fontSize=16;fontStyle=1" vertex="1" parent="XJmmUtHrJqsa_5hOQ3wF-1">
          <mxGeometry x="560" y="245" width="60" height="30" as="geometry" />
        </mxCell>
        <mxCell id="XJmmUtHrJqsa_5hOQ3wF-9" value="" style="endArrow=none;html=1;rounded=0;fontStyle=1" edge="1" parent="XJmmUtHrJqsa_5hOQ3wF-1">
          <mxGeometry width="50" height="50" relative="1" as="geometry">
            <mxPoint x="550" y="340" as="sourcePoint" />
            <mxPoint x="630" y="340" as="targetPoint" />
          </mxGeometry>
        </mxCell>
        <mxCell id="XJmmUtHrJqsa_5hOQ3wF-10" value="" style="endArrow=none;html=1;rounded=0;fontStyle=1" edge="1" parent="XJmmUtHrJqsa_5hOQ3wF-1">
          <mxGeometry width="50" height="50" relative="1" as="geometry">
            <mxPoint x="560" y="350" as="sourcePoint" />
            <mxPoint x="620" y="350" as="targetPoint" />
            <Array as="points">
              <mxPoint x="600" y="350" />
            </Array>
          </mxGeometry>
        </mxCell>
        <mxCell id="XJmmUtHrJqsa_5hOQ3wF-11" value="" style="endArrow=none;html=1;rounded=0;fontStyle=1" edge="1" parent="XJmmUtHrJqsa_5hOQ3wF-1">
          <mxGeometry width="50" height="50" relative="1" as="geometry">
            <mxPoint x="570" y="360" as="sourcePoint" />
            <mxPoint x="610" y="360" as="targetPoint" />
          </mxGeometry>
        </mxCell>
        <mxCell id="XJmmUtHrJqsa_5hOQ3wF-12" value="" style="endArrow=classic;html=1;rounded=0;exitX=0.5;exitY=1;exitDx=0;exitDy=0;fontStyle=1" edge="1" parent="XJmmUtHrJqsa_5hOQ3wF-1" source="XJmmUtHrJqsa_5hOQ3wF-7">
          <mxGeometry width="50" height="50" relative="1" as="geometry">
            <mxPoint x="566" y="360" as="sourcePoint" />
            <mxPoint x="460" y="340" as="targetPoint" />
          </mxGeometry>
        </mxCell>
      </root>
    </mxGraphModel>
  </diagram>
  <diagram name="Etapa 2.3" id="mZgjrCSJbM7prGVhFlei">
    <mxGraphModel dx="1434" dy="780" grid="1" gridSize="10" guides="1" tooltips="1" connect="1" arrows="1" fold="1" page="1" pageScale="1" pageWidth="827" pageHeight="1169" math="0" shadow="0">
      <root>
        <mxCell id="ACxiRhfulC5yKwoxgrJp-0" />
        <mxCell id="ACxiRhfulC5yKwoxgrJp-1" parent="ACxiRhfulC5yKwoxgrJp-0" />
        <mxCell id="ACxiRhfulC5yKwoxgrJp-2" value="" style="endArrow=classic;html=1;rounded=0;" edge="1" parent="ACxiRhfulC5yKwoxgrJp-1">
          <mxGeometry width="50" height="50" relative="1" as="geometry">
            <mxPoint x="410" y="250" as="sourcePoint" />
            <mxPoint x="410" y="310" as="targetPoint" />
          </mxGeometry>
        </mxCell>
        <mxCell id="ACxiRhfulC5yKwoxgrJp-6" value="TOPO" style="text;html=1;align=center;verticalAlign=middle;whiteSpace=wrap;rounded=0;fontSize=16;" vertex="1" parent="ACxiRhfulC5yKwoxgrJp-1">
          <mxGeometry x="380" y="220" width="60" height="30" as="geometry" />
        </mxCell>
        <mxCell id="ACxiRhfulC5yKwoxgrJp-7" value="" style="whiteSpace=wrap;html=1;aspect=fixed;fontStyle=1" vertex="1" parent="ACxiRhfulC5yKwoxgrJp-1">
          <mxGeometry x="370" y="320" width="80" height="80" as="geometry" />
        </mxCell>
        <mxCell id="ACxiRhfulC5yKwoxgrJp-8" value="12" style="text;html=1;align=center;verticalAlign=middle;whiteSpace=wrap;rounded=0;fontSize=16;fontStyle=1" vertex="1" parent="ACxiRhfulC5yKwoxgrJp-1">
          <mxGeometry x="380" y="345" width="60" height="30" as="geometry" />
        </mxCell>
        <mxCell id="ACxiRhfulC5yKwoxgrJp-9" value="" style="endArrow=none;html=1;rounded=0;fontStyle=1" edge="1" parent="ACxiRhfulC5yKwoxgrJp-1">
          <mxGeometry width="50" height="50" relative="1" as="geometry">
            <mxPoint x="370" y="440" as="sourcePoint" />
            <mxPoint x="450" y="440" as="targetPoint" />
          </mxGeometry>
        </mxCell>
        <mxCell id="ACxiRhfulC5yKwoxgrJp-10" value="" style="endArrow=none;html=1;rounded=0;fontStyle=1" edge="1" parent="ACxiRhfulC5yKwoxgrJp-1">
          <mxGeometry width="50" height="50" relative="1" as="geometry">
            <mxPoint x="380" y="450" as="sourcePoint" />
            <mxPoint x="440" y="450" as="targetPoint" />
            <Array as="points">
              <mxPoint x="420" y="450" />
            </Array>
          </mxGeometry>
        </mxCell>
        <mxCell id="ACxiRhfulC5yKwoxgrJp-11" value="" style="endArrow=none;html=1;rounded=0;fontStyle=1" edge="1" parent="ACxiRhfulC5yKwoxgrJp-1">
          <mxGeometry width="50" height="50" relative="1" as="geometry">
            <mxPoint x="390" y="460" as="sourcePoint" />
            <mxPoint x="430" y="460" as="targetPoint" />
          </mxGeometry>
        </mxCell>
        <mxCell id="ACxiRhfulC5yKwoxgrJp-12" value="" style="endArrow=classic;html=1;rounded=0;exitX=0.5;exitY=1;exitDx=0;exitDy=0;fontStyle=1" edge="1" parent="ACxiRhfulC5yKwoxgrJp-1" source="ACxiRhfulC5yKwoxgrJp-7">
          <mxGeometry width="50" height="50" relative="1" as="geometry">
            <mxPoint x="566" y="350" as="sourcePoint" />
            <mxPoint x="410" y="440" as="targetPoint" />
          </mxGeometry>
        </mxCell>
      </root>
    </mxGraphModel>
  </diagram>
  <diagram name="Etapa 3.1" id="rZGyh2AEN3Jwb4pfS2G6">
    <mxGraphModel dx="1434" dy="780" grid="1" gridSize="10" guides="1" tooltips="1" connect="1" arrows="1" fold="1" page="1" pageScale="1" pageWidth="827" pageHeight="1169" math="0" shadow="0">
      <root>
        <mxCell id="T_SvCTVTgCNUcKybFlHB-0" />
        <mxCell id="T_SvCTVTgCNUcKybFlHB-1" parent="T_SvCTVTgCNUcKybFlHB-0" />
        <mxCell id="T_SvCTVTgCNUcKybFlHB-2" value="" style="endArrow=classic;html=1;rounded=0;" edge="1" parent="T_SvCTVTgCNUcKybFlHB-1">
          <mxGeometry width="50" height="50" relative="1" as="geometry">
            <mxPoint x="410" y="250" as="sourcePoint" />
            <mxPoint x="410" y="310" as="targetPoint" />
          </mxGeometry>
        </mxCell>
        <mxCell id="T_SvCTVTgCNUcKybFlHB-3" value="TOPO" style="text;html=1;align=center;verticalAlign=middle;whiteSpace=wrap;rounded=0;fontSize=16;" vertex="1" parent="T_SvCTVTgCNUcKybFlHB-1">
          <mxGeometry x="380" y="220" width="60" height="30" as="geometry" />
        </mxCell>
        <mxCell id="T_SvCTVTgCNUcKybFlHB-4" value="" style="whiteSpace=wrap;html=1;aspect=fixed;fontStyle=1" vertex="1" parent="T_SvCTVTgCNUcKybFlHB-1">
          <mxGeometry x="370" y="320" width="80" height="80" as="geometry" />
        </mxCell>
        <mxCell id="T_SvCTVTgCNUcKybFlHB-5" value="12" style="text;html=1;align=center;verticalAlign=middle;whiteSpace=wrap;rounded=0;fontSize=16;fontStyle=1" vertex="1" parent="T_SvCTVTgCNUcKybFlHB-1">
          <mxGeometry x="380" y="345" width="60" height="30" as="geometry" />
        </mxCell>
        <mxCell id="T_SvCTVTgCNUcKybFlHB-6" value="" style="endArrow=none;html=1;rounded=0;fontStyle=1" edge="1" parent="T_SvCTVTgCNUcKybFlHB-1">
          <mxGeometry width="50" height="50" relative="1" as="geometry">
            <mxPoint x="370" y="440" as="sourcePoint" />
            <mxPoint x="450" y="440" as="targetPoint" />
          </mxGeometry>
        </mxCell>
        <mxCell id="T_SvCTVTgCNUcKybFlHB-7" value="" style="endArrow=none;html=1;rounded=0;fontStyle=1" edge="1" parent="T_SvCTVTgCNUcKybFlHB-1">
          <mxGeometry width="50" height="50" relative="1" as="geometry">
            <mxPoint x="380" y="450" as="sourcePoint" />
            <mxPoint x="440" y="450" as="targetPoint" />
            <Array as="points">
              <mxPoint x="420" y="450" />
            </Array>
          </mxGeometry>
        </mxCell>
        <mxCell id="T_SvCTVTgCNUcKybFlHB-8" value="" style="endArrow=none;html=1;rounded=0;fontStyle=1" edge="1" parent="T_SvCTVTgCNUcKybFlHB-1">
          <mxGeometry width="50" height="50" relative="1" as="geometry">
            <mxPoint x="390" y="460" as="sourcePoint" />
            <mxPoint x="430" y="460" as="targetPoint" />
          </mxGeometry>
        </mxCell>
        <mxCell id="T_SvCTVTgCNUcKybFlHB-9" value="" style="endArrow=classic;html=1;rounded=0;exitX=0.5;exitY=1;exitDx=0;exitDy=0;fontStyle=1" edge="1" parent="T_SvCTVTgCNUcKybFlHB-1" source="T_SvCTVTgCNUcKybFlHB-4">
          <mxGeometry width="50" height="50" relative="1" as="geometry">
            <mxPoint x="566" y="350" as="sourcePoint" />
            <mxPoint x="410" y="440" as="targetPoint" />
          </mxGeometry>
        </mxCell>
        <mxCell id="wp-wTqurdOENRD2AV0Ba-0" value="" style="endArrow=classic;html=1;rounded=0;" edge="1" parent="T_SvCTVTgCNUcKybFlHB-1">
          <mxGeometry width="50" height="50" relative="1" as="geometry">
            <mxPoint x="480" y="260" as="sourcePoint" />
            <mxPoint x="420" y="310" as="targetPoint" />
          </mxGeometry>
        </mxCell>
        <mxCell id="wp-wTqurdOENRD2AV0Ba-1" value="AUX" style="text;html=1;align=center;verticalAlign=middle;whiteSpace=wrap;rounded=0;fontSize=16;" vertex="1" parent="T_SvCTVTgCNUcKybFlHB-1">
          <mxGeometry x="460" y="230" width="60" height="30" as="geometry" />
        </mxCell>
      </root>
    </mxGraphModel>
  </diagram>
  <diagram name="Etapa 3.2" id="XjkydkRZ7DJB6dqUJeIr">
    <mxGraphModel dx="1434" dy="780" grid="1" gridSize="10" guides="1" tooltips="1" connect="1" arrows="1" fold="1" page="1" pageScale="1" pageWidth="827" pageHeight="1169" math="0" shadow="0">
      <root>
        <mxCell id="01-ADYNUG3L5j2DdZw9H-0" />
        <mxCell id="01-ADYNUG3L5j2DdZw9H-1" parent="01-ADYNUG3L5j2DdZw9H-0" />
        <mxCell id="01-ADYNUG3L5j2DdZw9H-2" value="" style="endArrow=classic;html=1;rounded=0;exitX=0.5;exitY=1;exitDx=0;exitDy=0;" edge="1" parent="01-ADYNUG3L5j2DdZw9H-1" source="01-ADYNUG3L5j2DdZw9H-3">
          <mxGeometry width="50" height="50" relative="1" as="geometry">
            <mxPoint x="309.5" y="380" as="sourcePoint" />
            <mxPoint x="400" y="440" as="targetPoint" />
          </mxGeometry>
        </mxCell>
        <mxCell id="01-ADYNUG3L5j2DdZw9H-3" value="TOPO" style="text;html=1;align=center;verticalAlign=middle;whiteSpace=wrap;rounded=0;fontSize=16;" vertex="1" parent="01-ADYNUG3L5j2DdZw9H-1">
          <mxGeometry x="280" y="345" width="60" height="25" as="geometry" />
        </mxCell>
        <mxCell id="01-ADYNUG3L5j2DdZw9H-4" value="" style="whiteSpace=wrap;html=1;aspect=fixed;fontStyle=1" vertex="1" parent="01-ADYNUG3L5j2DdZw9H-1">
          <mxGeometry x="370" y="320" width="80" height="80" as="geometry" />
        </mxCell>
        <mxCell id="01-ADYNUG3L5j2DdZw9H-5" value="12" style="text;html=1;align=center;verticalAlign=middle;whiteSpace=wrap;rounded=0;fontSize=16;fontStyle=1" vertex="1" parent="01-ADYNUG3L5j2DdZw9H-1">
          <mxGeometry x="380" y="345" width="60" height="30" as="geometry" />
        </mxCell>
        <mxCell id="01-ADYNUG3L5j2DdZw9H-6" value="" style="endArrow=none;html=1;rounded=0;fontStyle=1" edge="1" parent="01-ADYNUG3L5j2DdZw9H-1">
          <mxGeometry width="50" height="50" relative="1" as="geometry">
            <mxPoint x="370" y="440" as="sourcePoint" />
            <mxPoint x="450" y="440" as="targetPoint" />
          </mxGeometry>
        </mxCell>
        <mxCell id="01-ADYNUG3L5j2DdZw9H-7" value="" style="endArrow=none;html=1;rounded=0;fontStyle=1" edge="1" parent="01-ADYNUG3L5j2DdZw9H-1">
          <mxGeometry width="50" height="50" relative="1" as="geometry">
            <mxPoint x="380" y="450" as="sourcePoint" />
            <mxPoint x="440" y="450" as="targetPoint" />
            <Array as="points">
              <mxPoint x="420" y="450" />
            </Array>
          </mxGeometry>
        </mxCell>
        <mxCell id="01-ADYNUG3L5j2DdZw9H-8" value="" style="endArrow=none;html=1;rounded=0;fontStyle=1" edge="1" parent="01-ADYNUG3L5j2DdZw9H-1">
          <mxGeometry width="50" height="50" relative="1" as="geometry">
            <mxPoint x="390" y="460" as="sourcePoint" />
            <mxPoint x="430" y="460" as="targetPoint" />
          </mxGeometry>
        </mxCell>
        <mxCell id="01-ADYNUG3L5j2DdZw9H-9" value="" style="endArrow=classic;html=1;rounded=0;exitX=0.5;exitY=1;exitDx=0;exitDy=0;fontStyle=1" edge="1" parent="01-ADYNUG3L5j2DdZw9H-1" source="01-ADYNUG3L5j2DdZw9H-4">
          <mxGeometry width="50" height="50" relative="1" as="geometry">
            <mxPoint x="566" y="350" as="sourcePoint" />
            <mxPoint x="410" y="440" as="targetPoint" />
          </mxGeometry>
        </mxCell>
        <mxCell id="01-ADYNUG3L5j2DdZw9H-10" value="" style="endArrow=classic;html=1;rounded=0;" edge="1" parent="01-ADYNUG3L5j2DdZw9H-1">
          <mxGeometry width="50" height="50" relative="1" as="geometry">
            <mxPoint x="480" y="260" as="sourcePoint" />
            <mxPoint x="420" y="310" as="targetPoint" />
          </mxGeometry>
        </mxCell>
        <mxCell id="01-ADYNUG3L5j2DdZw9H-11" value="AUX" style="text;html=1;align=center;verticalAlign=middle;whiteSpace=wrap;rounded=0;fontSize=16;" vertex="1" parent="01-ADYNUG3L5j2DdZw9H-1">
          <mxGeometry x="460" y="230" width="60" height="30" as="geometry" />
        </mxCell>
      </root>
    </mxGraphModel>
  </diagram>
  <diagram name="Etapa 3.3" id="53NDLxKfLGHD8GjWYpJr">
    <mxGraphModel dx="1434" dy="780" grid="1" gridSize="10" guides="1" tooltips="1" connect="1" arrows="1" fold="1" page="1" pageScale="1" pageWidth="827" pageHeight="1169" math="0" shadow="0">
      <root>
        <mxCell id="7K7r8d_xQEToTK5sBavo-0" />
        <mxCell id="7K7r8d_xQEToTK5sBavo-1" parent="7K7r8d_xQEToTK5sBavo-0" />
        <mxCell id="7K7r8d_xQEToTK5sBavo-2" value="" style="endArrow=classic;html=1;rounded=0;exitX=0.5;exitY=1;exitDx=0;exitDy=0;" edge="1" parent="7K7r8d_xQEToTK5sBavo-1" source="7K7r8d_xQEToTK5sBavo-3">
          <mxGeometry width="50" height="50" relative="1" as="geometry">
            <mxPoint x="309.5" y="380" as="sourcePoint" />
            <mxPoint x="400" y="440" as="targetPoint" />
          </mxGeometry>
        </mxCell>
        <mxCell id="7K7r8d_xQEToTK5sBavo-3" value="TOPO" style="text;html=1;align=center;verticalAlign=middle;whiteSpace=wrap;rounded=0;fontSize=16;" vertex="1" parent="7K7r8d_xQEToTK5sBavo-1">
          <mxGeometry x="280" y="345" width="60" height="25" as="geometry" />
        </mxCell>
        <mxCell id="7K7r8d_xQEToTK5sBavo-4" value="" style="whiteSpace=wrap;html=1;aspect=fixed;fontStyle=1" vertex="1" parent="7K7r8d_xQEToTK5sBavo-1">
          <mxGeometry x="370" y="320" width="80" height="80" as="geometry" />
        </mxCell>
        <mxCell id="7K7r8d_xQEToTK5sBavo-5" value="128" style="text;html=1;align=center;verticalAlign=middle;whiteSpace=wrap;rounded=0;fontSize=16;fontStyle=1" vertex="1" parent="7K7r8d_xQEToTK5sBavo-1">
          <mxGeometry x="380" y="345" width="60" height="30" as="geometry" />
        </mxCell>
        <mxCell id="7K7r8d_xQEToTK5sBavo-6" value="" style="endArrow=none;html=1;rounded=0;fontStyle=1" edge="1" parent="7K7r8d_xQEToTK5sBavo-1">
          <mxGeometry width="50" height="50" relative="1" as="geometry">
            <mxPoint x="370" y="440" as="sourcePoint" />
            <mxPoint x="450" y="440" as="targetPoint" />
          </mxGeometry>
        </mxCell>
        <mxCell id="7K7r8d_xQEToTK5sBavo-7" value="" style="endArrow=none;html=1;rounded=0;fontStyle=1" edge="1" parent="7K7r8d_xQEToTK5sBavo-1">
          <mxGeometry width="50" height="50" relative="1" as="geometry">
            <mxPoint x="380" y="450" as="sourcePoint" />
            <mxPoint x="440" y="450" as="targetPoint" />
            <Array as="points">
              <mxPoint x="420" y="450" />
            </Array>
          </mxGeometry>
        </mxCell>
        <mxCell id="7K7r8d_xQEToTK5sBavo-8" value="" style="endArrow=none;html=1;rounded=0;fontStyle=1" edge="1" parent="7K7r8d_xQEToTK5sBavo-1">
          <mxGeometry width="50" height="50" relative="1" as="geometry">
            <mxPoint x="390" y="460" as="sourcePoint" />
            <mxPoint x="430" y="460" as="targetPoint" />
          </mxGeometry>
        </mxCell>
        <mxCell id="7K7r8d_xQEToTK5sBavo-9" value="" style="endArrow=classic;html=1;rounded=0;exitX=0.5;exitY=1;exitDx=0;exitDy=0;fontStyle=1" edge="1" parent="7K7r8d_xQEToTK5sBavo-1" source="7K7r8d_xQEToTK5sBavo-4">
          <mxGeometry width="50" height="50" relative="1" as="geometry">
            <mxPoint x="566" y="350" as="sourcePoint" />
            <mxPoint x="410" y="440" as="targetPoint" />
          </mxGeometry>
        </mxCell>
        <mxCell id="7K7r8d_xQEToTK5sBavo-10" value="" style="endArrow=classic;html=1;rounded=0;" edge="1" parent="7K7r8d_xQEToTK5sBavo-1">
          <mxGeometry width="50" height="50" relative="1" as="geometry">
            <mxPoint x="480" y="260" as="sourcePoint" />
            <mxPoint x="420" y="310" as="targetPoint" />
          </mxGeometry>
        </mxCell>
        <mxCell id="7K7r8d_xQEToTK5sBavo-11" value="AUX" style="text;html=1;align=center;verticalAlign=middle;whiteSpace=wrap;rounded=0;fontSize=16;" vertex="1" parent="7K7r8d_xQEToTK5sBavo-1">
          <mxGeometry x="460" y="230" width="60" height="30" as="geometry" />
        </mxCell>
        <mxCell id="5Z_v6WgVF-tMXzMY2mHt-1" value="" style="verticalLabelPosition=bottom;verticalAlign=top;html=1;shape=mxgraph.basic.x;fillColor=#FF7112;strokeColor=#b85450;gradientColor=none;" vertex="1" parent="7K7r8d_xQEToTK5sBavo-1">
          <mxGeometry x="370" y="328.13" width="80" height="63.75" as="geometry" />
        </mxCell>
      </root>
    </mxGraphModel>
  </diagram>
  <diagram name="Etapa 3.4" id="3nqVn3R9zM_KsU4dM2LO">
    <mxGraphModel dx="1434" dy="780" grid="1" gridSize="10" guides="1" tooltips="1" connect="1" arrows="1" fold="1" page="1" pageScale="1" pageWidth="827" pageHeight="1169" math="0" shadow="0">
      <root>
        <mxCell id="L6DV9Gu1bMY4hCZlG-lX-0" />
        <mxCell id="L6DV9Gu1bMY4hCZlG-lX-1" parent="L6DV9Gu1bMY4hCZlG-lX-0" />
        <mxCell id="L6DV9Gu1bMY4hCZlG-lX-2" value="" style="endArrow=classic;html=1;rounded=0;" edge="1" parent="L6DV9Gu1bMY4hCZlG-lX-1">
          <mxGeometry width="50" height="50" relative="1" as="geometry">
            <mxPoint x="410" y="250" as="sourcePoint" />
            <mxPoint x="410" y="330" as="targetPoint" />
          </mxGeometry>
        </mxCell>
        <mxCell id="L6DV9Gu1bMY4hCZlG-lX-3" value="" style="endArrow=none;html=1;rounded=0;" edge="1" parent="L6DV9Gu1bMY4hCZlG-lX-1">
          <mxGeometry width="50" height="50" relative="1" as="geometry">
            <mxPoint x="370" y="340" as="sourcePoint" />
            <mxPoint x="450" y="340" as="targetPoint" />
          </mxGeometry>
        </mxCell>
        <mxCell id="L6DV9Gu1bMY4hCZlG-lX-4" value="" style="endArrow=none;html=1;rounded=0;" edge="1" parent="L6DV9Gu1bMY4hCZlG-lX-1">
          <mxGeometry width="50" height="50" relative="1" as="geometry">
            <mxPoint x="380" y="350" as="sourcePoint" />
            <mxPoint x="440" y="350" as="targetPoint" />
            <Array as="points">
              <mxPoint x="420" y="350" />
            </Array>
          </mxGeometry>
        </mxCell>
        <mxCell id="L6DV9Gu1bMY4hCZlG-lX-5" value="" style="endArrow=none;html=1;rounded=0;" edge="1" parent="L6DV9Gu1bMY4hCZlG-lX-1">
          <mxGeometry width="50" height="50" relative="1" as="geometry">
            <mxPoint x="390" y="360" as="sourcePoint" />
            <mxPoint x="430" y="360" as="targetPoint" />
          </mxGeometry>
        </mxCell>
        <mxCell id="L6DV9Gu1bMY4hCZlG-lX-6" value="TOPO" style="text;html=1;align=center;verticalAlign=middle;whiteSpace=wrap;rounded=0;fontSize=16;" vertex="1" parent="L6DV9Gu1bMY4hCZlG-lX-1">
          <mxGeometry x="380" y="220" width="60" height="30" as="geometry" />
        </mxCell>
      </root>
    </mxGraphModel>
  </diagram>
  <diagram name="Etapa 4.1" id="n6-i3rgoQyTT66WD7i7Q">
    <mxGraphModel dx="1434" dy="780" grid="1" gridSize="10" guides="1" tooltips="1" connect="1" arrows="1" fold="1" page="1" pageScale="1" pageWidth="827" pageHeight="1169" math="0" shadow="0">
      <root>
        <mxCell id="pUUnV3_5SMYN9_CNhEiZ-0" />
        <mxCell id="pUUnV3_5SMYN9_CNhEiZ-1" parent="pUUnV3_5SMYN9_CNhEiZ-0" />
        <mxCell id="pUUnV3_5SMYN9_CNhEiZ-2" value="" style="endArrow=classic;html=1;rounded=0;" edge="1" parent="pUUnV3_5SMYN9_CNhEiZ-1">
          <mxGeometry width="50" height="50" relative="1" as="geometry">
            <mxPoint x="410" y="250" as="sourcePoint" />
            <mxPoint x="410" y="330" as="targetPoint" />
          </mxGeometry>
        </mxCell>
        <mxCell id="pUUnV3_5SMYN9_CNhEiZ-3" value="" style="endArrow=none;html=1;rounded=0;" edge="1" parent="pUUnV3_5SMYN9_CNhEiZ-1">
          <mxGeometry width="50" height="50" relative="1" as="geometry">
            <mxPoint x="370" y="340" as="sourcePoint" />
            <mxPoint x="450" y="340" as="targetPoint" />
          </mxGeometry>
        </mxCell>
        <mxCell id="pUUnV3_5SMYN9_CNhEiZ-4" value="" style="endArrow=none;html=1;rounded=0;" edge="1" parent="pUUnV3_5SMYN9_CNhEiZ-1">
          <mxGeometry width="50" height="50" relative="1" as="geometry">
            <mxPoint x="380" y="350" as="sourcePoint" />
            <mxPoint x="440" y="350" as="targetPoint" />
            <Array as="points">
              <mxPoint x="420" y="350" />
            </Array>
          </mxGeometry>
        </mxCell>
        <mxCell id="pUUnV3_5SMYN9_CNhEiZ-5" value="" style="endArrow=none;html=1;rounded=0;" edge="1" parent="pUUnV3_5SMYN9_CNhEiZ-1">
          <mxGeometry width="50" height="50" relative="1" as="geometry">
            <mxPoint x="390" y="360" as="sourcePoint" />
            <mxPoint x="430" y="360" as="targetPoint" />
          </mxGeometry>
        </mxCell>
        <mxCell id="pUUnV3_5SMYN9_CNhEiZ-6" value="TOPO" style="text;html=1;align=center;verticalAlign=middle;whiteSpace=wrap;rounded=0;fontSize=16;" vertex="1" parent="pUUnV3_5SMYN9_CNhEiZ-1">
          <mxGeometry x="380" y="220" width="60" height="30" as="geometry" />
        </mxCell>
        <mxCell id="P6KT-ccmduIzLjg_P-Kr-0" value="" style="whiteSpace=wrap;html=1;aspect=fixed;fontStyle=1" vertex="1" parent="pUUnV3_5SMYN9_CNhEiZ-1">
          <mxGeometry x="550" y="220" width="80" height="80" as="geometry" />
        </mxCell>
        <mxCell id="P6KT-ccmduIzLjg_P-Kr-1" value="6" style="text;html=1;align=center;verticalAlign=middle;whiteSpace=wrap;rounded=0;fontSize=16;fontStyle=1" vertex="1" parent="pUUnV3_5SMYN9_CNhEiZ-1">
          <mxGeometry x="560" y="245" width="60" height="30" as="geometry" />
        </mxCell>
        <mxCell id="P6KT-ccmduIzLjg_P-Kr-2" value="" style="endArrow=none;html=1;rounded=0;fontStyle=1" edge="1" parent="pUUnV3_5SMYN9_CNhEiZ-1">
          <mxGeometry width="50" height="50" relative="1" as="geometry">
            <mxPoint x="550" y="340" as="sourcePoint" />
            <mxPoint x="630" y="340" as="targetPoint" />
          </mxGeometry>
        </mxCell>
        <mxCell id="P6KT-ccmduIzLjg_P-Kr-3" value="" style="endArrow=none;html=1;rounded=0;fontStyle=1" edge="1" parent="pUUnV3_5SMYN9_CNhEiZ-1">
          <mxGeometry width="50" height="50" relative="1" as="geometry">
            <mxPoint x="560" y="350" as="sourcePoint" />
            <mxPoint x="620" y="350" as="targetPoint" />
            <Array as="points">
              <mxPoint x="600" y="350" />
            </Array>
          </mxGeometry>
        </mxCell>
        <mxCell id="P6KT-ccmduIzLjg_P-Kr-4" value="" style="endArrow=none;html=1;rounded=0;fontStyle=1" edge="1" parent="pUUnV3_5SMYN9_CNhEiZ-1">
          <mxGeometry width="50" height="50" relative="1" as="geometry">
            <mxPoint x="570" y="360" as="sourcePoint" />
            <mxPoint x="610" y="360" as="targetPoint" />
          </mxGeometry>
        </mxCell>
        <mxCell id="P6KT-ccmduIzLjg_P-Kr-5" value="" style="endArrow=classic;html=1;rounded=0;exitX=0.5;exitY=1;exitDx=0;exitDy=0;fontStyle=1" edge="1" parent="pUUnV3_5SMYN9_CNhEiZ-1" source="P6KT-ccmduIzLjg_P-Kr-0">
          <mxGeometry width="50" height="50" relative="1" as="geometry">
            <mxPoint x="566" y="360" as="sourcePoint" />
            <mxPoint x="590" y="330" as="targetPoint" />
          </mxGeometry>
        </mxCell>
      </root>
    </mxGraphModel>
  </diagram>
  <diagram name="Etapa 4.2" id="rNeWwhWYvCXl2czAcIXp">
    <mxGraphModel dx="1434" dy="780" grid="1" gridSize="10" guides="1" tooltips="1" connect="1" arrows="1" fold="1" page="1" pageScale="1" pageWidth="827" pageHeight="1169" math="0" shadow="0">
      <root>
        <mxCell id="qCdZUfbQdJsn8kstZb61-0" />
        <mxCell id="qCdZUfbQdJsn8kstZb61-1" parent="qCdZUfbQdJsn8kstZb61-0" />
        <mxCell id="qCdZUfbQdJsn8kstZb61-2" value="" style="endArrow=classic;html=1;rounded=0;" edge="1" parent="qCdZUfbQdJsn8kstZb61-1">
          <mxGeometry width="50" height="50" relative="1" as="geometry">
            <mxPoint x="410" y="250" as="sourcePoint" />
            <mxPoint x="410" y="330" as="targetPoint" />
          </mxGeometry>
        </mxCell>
        <mxCell id="qCdZUfbQdJsn8kstZb61-3" value="" style="endArrow=none;html=1;rounded=0;" edge="1" parent="qCdZUfbQdJsn8kstZb61-1">
          <mxGeometry width="50" height="50" relative="1" as="geometry">
            <mxPoint x="370" y="340" as="sourcePoint" />
            <mxPoint x="450" y="340" as="targetPoint" />
          </mxGeometry>
        </mxCell>
        <mxCell id="qCdZUfbQdJsn8kstZb61-4" value="" style="endArrow=none;html=1;rounded=0;" edge="1" parent="qCdZUfbQdJsn8kstZb61-1">
          <mxGeometry width="50" height="50" relative="1" as="geometry">
            <mxPoint x="380" y="350" as="sourcePoint" />
            <mxPoint x="440" y="350" as="targetPoint" />
            <Array as="points">
              <mxPoint x="420" y="350" />
            </Array>
          </mxGeometry>
        </mxCell>
        <mxCell id="qCdZUfbQdJsn8kstZb61-5" value="" style="endArrow=none;html=1;rounded=0;" edge="1" parent="qCdZUfbQdJsn8kstZb61-1">
          <mxGeometry width="50" height="50" relative="1" as="geometry">
            <mxPoint x="390" y="360" as="sourcePoint" />
            <mxPoint x="430" y="360" as="targetPoint" />
          </mxGeometry>
        </mxCell>
        <mxCell id="qCdZUfbQdJsn8kstZb61-6" value="TOPO" style="text;html=1;align=center;verticalAlign=middle;whiteSpace=wrap;rounded=0;fontSize=16;" vertex="1" parent="qCdZUfbQdJsn8kstZb61-1">
          <mxGeometry x="380" y="220" width="60" height="30" as="geometry" />
        </mxCell>
        <mxCell id="qCdZUfbQdJsn8kstZb61-7" value="" style="whiteSpace=wrap;html=1;aspect=fixed;fontStyle=1" vertex="1" parent="qCdZUfbQdJsn8kstZb61-1">
          <mxGeometry x="550" y="220" width="80" height="80" as="geometry" />
        </mxCell>
        <mxCell id="qCdZUfbQdJsn8kstZb61-8" value="6" style="text;html=1;align=center;verticalAlign=middle;whiteSpace=wrap;rounded=0;fontSize=16;fontStyle=1" vertex="1" parent="qCdZUfbQdJsn8kstZb61-1">
          <mxGeometry x="560" y="245" width="60" height="30" as="geometry" />
        </mxCell>
        <mxCell id="qCdZUfbQdJsn8kstZb61-9" value="" style="endArrow=none;html=1;rounded=0;fontStyle=1" edge="1" parent="qCdZUfbQdJsn8kstZb61-1">
          <mxGeometry width="50" height="50" relative="1" as="geometry">
            <mxPoint x="550" y="340" as="sourcePoint" />
            <mxPoint x="630" y="340" as="targetPoint" />
          </mxGeometry>
        </mxCell>
        <mxCell id="qCdZUfbQdJsn8kstZb61-10" value="" style="endArrow=none;html=1;rounded=0;fontStyle=1" edge="1" parent="qCdZUfbQdJsn8kstZb61-1">
          <mxGeometry width="50" height="50" relative="1" as="geometry">
            <mxPoint x="560" y="350" as="sourcePoint" />
            <mxPoint x="620" y="350" as="targetPoint" />
            <Array as="points">
              <mxPoint x="600" y="350" />
            </Array>
          </mxGeometry>
        </mxCell>
        <mxCell id="qCdZUfbQdJsn8kstZb61-11" value="" style="endArrow=none;html=1;rounded=0;fontStyle=1" edge="1" parent="qCdZUfbQdJsn8kstZb61-1">
          <mxGeometry width="50" height="50" relative="1" as="geometry">
            <mxPoint x="570" y="360" as="sourcePoint" />
            <mxPoint x="610" y="360" as="targetPoint" />
          </mxGeometry>
        </mxCell>
        <mxCell id="qCdZUfbQdJsn8kstZb61-12" value="" style="endArrow=classic;html=1;rounded=0;exitX=0.5;exitY=1;exitDx=0;exitDy=0;fontStyle=1" edge="1" parent="qCdZUfbQdJsn8kstZb61-1" source="qCdZUfbQdJsn8kstZb61-7">
          <mxGeometry width="50" height="50" relative="1" as="geometry">
            <mxPoint x="566" y="360" as="sourcePoint" />
            <mxPoint x="460" y="340" as="targetPoint" />
          </mxGeometry>
        </mxCell>
      </root>
    </mxGraphModel>
  </diagram>
  <diagram name="Etapa 4.3" id="JQtUl6ifpXzZjEuDHj8e">
    <mxGraphModel dx="1434" dy="780" grid="1" gridSize="10" guides="1" tooltips="1" connect="1" arrows="1" fold="1" page="1" pageScale="1" pageWidth="827" pageHeight="1169" math="0" shadow="0">
      <root>
        <mxCell id="mc1hqx9ljoGKA0U7w_83-0" />
        <mxCell id="mc1hqx9ljoGKA0U7w_83-1" parent="mc1hqx9ljoGKA0U7w_83-0" />
        <mxCell id="mc1hqx9ljoGKA0U7w_83-2" value="" style="endArrow=classic;html=1;rounded=0;" edge="1" parent="mc1hqx9ljoGKA0U7w_83-1">
          <mxGeometry width="50" height="50" relative="1" as="geometry">
            <mxPoint x="410" y="250" as="sourcePoint" />
            <mxPoint x="410" y="310" as="targetPoint" />
          </mxGeometry>
        </mxCell>
        <mxCell id="mc1hqx9ljoGKA0U7w_83-3" value="TOPO" style="text;html=1;align=center;verticalAlign=middle;whiteSpace=wrap;rounded=0;fontSize=16;" vertex="1" parent="mc1hqx9ljoGKA0U7w_83-1">
          <mxGeometry x="380" y="220" width="60" height="30" as="geometry" />
        </mxCell>
        <mxCell id="mc1hqx9ljoGKA0U7w_83-4" value="" style="whiteSpace=wrap;html=1;aspect=fixed;fontStyle=1" vertex="1" parent="mc1hqx9ljoGKA0U7w_83-1">
          <mxGeometry x="370" y="320" width="80" height="80" as="geometry" />
        </mxCell>
        <mxCell id="mc1hqx9ljoGKA0U7w_83-5" value="6" style="text;html=1;align=center;verticalAlign=middle;whiteSpace=wrap;rounded=0;fontSize=16;fontStyle=1" vertex="1" parent="mc1hqx9ljoGKA0U7w_83-1">
          <mxGeometry x="380" y="345" width="60" height="30" as="geometry" />
        </mxCell>
        <mxCell id="mc1hqx9ljoGKA0U7w_83-6" value="" style="endArrow=none;html=1;rounded=0;fontStyle=1" edge="1" parent="mc1hqx9ljoGKA0U7w_83-1">
          <mxGeometry width="50" height="50" relative="1" as="geometry">
            <mxPoint x="370" y="440" as="sourcePoint" />
            <mxPoint x="450" y="440" as="targetPoint" />
          </mxGeometry>
        </mxCell>
        <mxCell id="mc1hqx9ljoGKA0U7w_83-7" value="" style="endArrow=none;html=1;rounded=0;fontStyle=1" edge="1" parent="mc1hqx9ljoGKA0U7w_83-1">
          <mxGeometry width="50" height="50" relative="1" as="geometry">
            <mxPoint x="380" y="450" as="sourcePoint" />
            <mxPoint x="440" y="450" as="targetPoint" />
            <Array as="points">
              <mxPoint x="420" y="450" />
            </Array>
          </mxGeometry>
        </mxCell>
        <mxCell id="mc1hqx9ljoGKA0U7w_83-8" value="" style="endArrow=none;html=1;rounded=0;fontStyle=1" edge="1" parent="mc1hqx9ljoGKA0U7w_83-1">
          <mxGeometry width="50" height="50" relative="1" as="geometry">
            <mxPoint x="390" y="460" as="sourcePoint" />
            <mxPoint x="430" y="460" as="targetPoint" />
          </mxGeometry>
        </mxCell>
        <mxCell id="mc1hqx9ljoGKA0U7w_83-9" value="" style="endArrow=classic;html=1;rounded=0;exitX=0.5;exitY=1;exitDx=0;exitDy=0;fontStyle=1" edge="1" parent="mc1hqx9ljoGKA0U7w_83-1" source="mc1hqx9ljoGKA0U7w_83-4">
          <mxGeometry width="50" height="50" relative="1" as="geometry">
            <mxPoint x="566" y="350" as="sourcePoint" />
            <mxPoint x="410" y="440" as="targetPoint" />
          </mxGeometry>
        </mxCell>
      </root>
    </mxGraphModel>
  </diagram>
  <diagram name="Etapa 5.1" id="YdcPcPpN9ulmcXwebBwu">
    <mxGraphModel dx="1434" dy="780" grid="1" gridSize="10" guides="1" tooltips="1" connect="1" arrows="1" fold="1" page="1" pageScale="1" pageWidth="827" pageHeight="1169" math="0" shadow="0">
      <root>
        <mxCell id="yFDY_BduZ04BKQS7jlwY-0" />
        <mxCell id="yFDY_BduZ04BKQS7jlwY-1" parent="yFDY_BduZ04BKQS7jlwY-0" />
        <mxCell id="yFDY_BduZ04BKQS7jlwY-2" value="" style="endArrow=classic;html=1;rounded=0;" edge="1" parent="yFDY_BduZ04BKQS7jlwY-1">
          <mxGeometry width="50" height="50" relative="1" as="geometry">
            <mxPoint x="410" y="250" as="sourcePoint" />
            <mxPoint x="410" y="310" as="targetPoint" />
          </mxGeometry>
        </mxCell>
        <mxCell id="yFDY_BduZ04BKQS7jlwY-3" value="TOPO" style="text;html=1;align=center;verticalAlign=middle;whiteSpace=wrap;rounded=0;fontSize=16;" vertex="1" parent="yFDY_BduZ04BKQS7jlwY-1">
          <mxGeometry x="380" y="220" width="60" height="30" as="geometry" />
        </mxCell>
        <mxCell id="yFDY_BduZ04BKQS7jlwY-4" value="" style="whiteSpace=wrap;html=1;aspect=fixed;fontStyle=1" vertex="1" parent="yFDY_BduZ04BKQS7jlwY-1">
          <mxGeometry x="370" y="320" width="80" height="80" as="geometry" />
        </mxCell>
        <mxCell id="yFDY_BduZ04BKQS7jlwY-5" value="6" style="text;html=1;align=center;verticalAlign=middle;whiteSpace=wrap;rounded=0;fontSize=16;fontStyle=1" vertex="1" parent="yFDY_BduZ04BKQS7jlwY-1">
          <mxGeometry x="380" y="345" width="60" height="30" as="geometry" />
        </mxCell>
        <mxCell id="yFDY_BduZ04BKQS7jlwY-6" value="" style="endArrow=none;html=1;rounded=0;fontStyle=1" edge="1" parent="yFDY_BduZ04BKQS7jlwY-1">
          <mxGeometry width="50" height="50" relative="1" as="geometry">
            <mxPoint x="370" y="440" as="sourcePoint" />
            <mxPoint x="450" y="440" as="targetPoint" />
          </mxGeometry>
        </mxCell>
        <mxCell id="yFDY_BduZ04BKQS7jlwY-7" value="" style="endArrow=none;html=1;rounded=0;fontStyle=1" edge="1" parent="yFDY_BduZ04BKQS7jlwY-1">
          <mxGeometry width="50" height="50" relative="1" as="geometry">
            <mxPoint x="380" y="450" as="sourcePoint" />
            <mxPoint x="440" y="450" as="targetPoint" />
            <Array as="points">
              <mxPoint x="420" y="450" />
            </Array>
          </mxGeometry>
        </mxCell>
        <mxCell id="yFDY_BduZ04BKQS7jlwY-8" value="" style="endArrow=none;html=1;rounded=0;fontStyle=1" edge="1" parent="yFDY_BduZ04BKQS7jlwY-1">
          <mxGeometry width="50" height="50" relative="1" as="geometry">
            <mxPoint x="390" y="460" as="sourcePoint" />
            <mxPoint x="430" y="460" as="targetPoint" />
          </mxGeometry>
        </mxCell>
        <mxCell id="yFDY_BduZ04BKQS7jlwY-9" value="" style="endArrow=classic;html=1;rounded=0;exitX=0.5;exitY=1;exitDx=0;exitDy=0;fontStyle=1" edge="1" parent="yFDY_BduZ04BKQS7jlwY-1" source="yFDY_BduZ04BKQS7jlwY-4">
          <mxGeometry width="50" height="50" relative="1" as="geometry">
            <mxPoint x="566" y="350" as="sourcePoint" />
            <mxPoint x="410" y="440" as="targetPoint" />
          </mxGeometry>
        </mxCell>
        <mxCell id="Ml_5bqr0YN1FI8z8IgGQ-0" value="" style="whiteSpace=wrap;html=1;aspect=fixed;fontStyle=1" vertex="1" parent="yFDY_BduZ04BKQS7jlwY-1">
          <mxGeometry x="540" y="210" width="80" height="80" as="geometry" />
        </mxCell>
        <mxCell id="Ml_5bqr0YN1FI8z8IgGQ-1" value="2" style="text;html=1;align=center;verticalAlign=middle;whiteSpace=wrap;rounded=0;fontSize=16;fontStyle=1" vertex="1" parent="yFDY_BduZ04BKQS7jlwY-1">
          <mxGeometry x="550" y="235" width="60" height="30" as="geometry" />
        </mxCell>
        <mxCell id="Ml_5bqr0YN1FI8z8IgGQ-2" value="" style="endArrow=none;html=1;rounded=0;fontStyle=1" edge="1" parent="yFDY_BduZ04BKQS7jlwY-1">
          <mxGeometry width="50" height="50" relative="1" as="geometry">
            <mxPoint x="540" y="330" as="sourcePoint" />
            <mxPoint x="620" y="330" as="targetPoint" />
          </mxGeometry>
        </mxCell>
        <mxCell id="Ml_5bqr0YN1FI8z8IgGQ-3" value="" style="endArrow=none;html=1;rounded=0;fontStyle=1" edge="1" parent="yFDY_BduZ04BKQS7jlwY-1">
          <mxGeometry width="50" height="50" relative="1" as="geometry">
            <mxPoint x="550" y="340" as="sourcePoint" />
            <mxPoint x="610" y="340" as="targetPoint" />
            <Array as="points">
              <mxPoint x="590" y="340" />
            </Array>
          </mxGeometry>
        </mxCell>
        <mxCell id="Ml_5bqr0YN1FI8z8IgGQ-4" value="" style="endArrow=none;html=1;rounded=0;fontStyle=1" edge="1" parent="yFDY_BduZ04BKQS7jlwY-1">
          <mxGeometry width="50" height="50" relative="1" as="geometry">
            <mxPoint x="560" y="350" as="sourcePoint" />
            <mxPoint x="600" y="350" as="targetPoint" />
          </mxGeometry>
        </mxCell>
        <mxCell id="Ml_5bqr0YN1FI8z8IgGQ-5" value="" style="endArrow=classic;html=1;rounded=0;exitX=0.5;exitY=1;exitDx=0;exitDy=0;fontStyle=1" edge="1" parent="yFDY_BduZ04BKQS7jlwY-1" source="Ml_5bqr0YN1FI8z8IgGQ-0">
          <mxGeometry width="50" height="50" relative="1" as="geometry">
            <mxPoint x="556" y="350" as="sourcePoint" />
            <mxPoint x="580" y="320" as="targetPoint" />
          </mxGeometry>
        </mxCell>
      </root>
    </mxGraphModel>
  </diagram>
  <diagram name="Etapa 5.2" id="hJ4c3l8xfikjdbkM2OKA">
    <mxGraphModel dx="1434" dy="780" grid="1" gridSize="10" guides="1" tooltips="1" connect="1" arrows="1" fold="1" page="1" pageScale="1" pageWidth="827" pageHeight="1169" math="0" shadow="0">
      <root>
        <mxCell id="wRoqTPfpPeOx7HwXdz7i-0" />
        <mxCell id="wRoqTPfpPeOx7HwXdz7i-1" parent="wRoqTPfpPeOx7HwXdz7i-0" />
        <mxCell id="wRoqTPfpPeOx7HwXdz7i-2" value="" style="endArrow=classic;html=1;rounded=0;" edge="1" parent="wRoqTPfpPeOx7HwXdz7i-1">
          <mxGeometry width="50" height="50" relative="1" as="geometry">
            <mxPoint x="410" y="250" as="sourcePoint" />
            <mxPoint x="410" y="310" as="targetPoint" />
          </mxGeometry>
        </mxCell>
        <mxCell id="wRoqTPfpPeOx7HwXdz7i-3" value="TOPO" style="text;html=1;align=center;verticalAlign=middle;whiteSpace=wrap;rounded=0;fontSize=16;" vertex="1" parent="wRoqTPfpPeOx7HwXdz7i-1">
          <mxGeometry x="380" y="220" width="60" height="30" as="geometry" />
        </mxCell>
        <mxCell id="wRoqTPfpPeOx7HwXdz7i-4" value="" style="whiteSpace=wrap;html=1;aspect=fixed;fontStyle=1" vertex="1" parent="wRoqTPfpPeOx7HwXdz7i-1">
          <mxGeometry x="370" y="320" width="80" height="80" as="geometry" />
        </mxCell>
        <mxCell id="wRoqTPfpPeOx7HwXdz7i-5" value="6" style="text;html=1;align=center;verticalAlign=middle;whiteSpace=wrap;rounded=0;fontSize=16;fontStyle=1" vertex="1" parent="wRoqTPfpPeOx7HwXdz7i-1">
          <mxGeometry x="380" y="345" width="60" height="30" as="geometry" />
        </mxCell>
        <mxCell id="wRoqTPfpPeOx7HwXdz7i-6" value="" style="endArrow=none;html=1;rounded=0;fontStyle=1" edge="1" parent="wRoqTPfpPeOx7HwXdz7i-1">
          <mxGeometry width="50" height="50" relative="1" as="geometry">
            <mxPoint x="370" y="440" as="sourcePoint" />
            <mxPoint x="450" y="440" as="targetPoint" />
          </mxGeometry>
        </mxCell>
        <mxCell id="wRoqTPfpPeOx7HwXdz7i-7" value="" style="endArrow=none;html=1;rounded=0;fontStyle=1" edge="1" parent="wRoqTPfpPeOx7HwXdz7i-1">
          <mxGeometry width="50" height="50" relative="1" as="geometry">
            <mxPoint x="380" y="450" as="sourcePoint" />
            <mxPoint x="440" y="450" as="targetPoint" />
            <Array as="points">
              <mxPoint x="420" y="450" />
            </Array>
          </mxGeometry>
        </mxCell>
        <mxCell id="wRoqTPfpPeOx7HwXdz7i-8" value="" style="endArrow=none;html=1;rounded=0;fontStyle=1" edge="1" parent="wRoqTPfpPeOx7HwXdz7i-1">
          <mxGeometry width="50" height="50" relative="1" as="geometry">
            <mxPoint x="390" y="460" as="sourcePoint" />
            <mxPoint x="430" y="460" as="targetPoint" />
          </mxGeometry>
        </mxCell>
        <mxCell id="wRoqTPfpPeOx7HwXdz7i-9" value="" style="endArrow=classic;html=1;rounded=0;exitX=0.5;exitY=1;exitDx=0;exitDy=0;fontStyle=1" edge="1" parent="wRoqTPfpPeOx7HwXdz7i-1" source="wRoqTPfpPeOx7HwXdz7i-4">
          <mxGeometry width="50" height="50" relative="1" as="geometry">
            <mxPoint x="566" y="350" as="sourcePoint" />
            <mxPoint x="410" y="440" as="targetPoint" />
          </mxGeometry>
        </mxCell>
        <mxCell id="wRoqTPfpPeOx7HwXdz7i-10" value="" style="whiteSpace=wrap;html=1;aspect=fixed;fontStyle=1" vertex="1" parent="wRoqTPfpPeOx7HwXdz7i-1">
          <mxGeometry x="540" y="210" width="80" height="80" as="geometry" />
        </mxCell>
        <mxCell id="wRoqTPfpPeOx7HwXdz7i-11" value="2" style="text;html=1;align=center;verticalAlign=middle;whiteSpace=wrap;rounded=0;fontSize=16;fontStyle=1" vertex="1" parent="wRoqTPfpPeOx7HwXdz7i-1">
          <mxGeometry x="550" y="235" width="60" height="30" as="geometry" />
        </mxCell>
        <mxCell id="wRoqTPfpPeOx7HwXdz7i-12" value="" style="endArrow=none;html=1;rounded=0;fontStyle=1" edge="1" parent="wRoqTPfpPeOx7HwXdz7i-1">
          <mxGeometry width="50" height="50" relative="1" as="geometry">
            <mxPoint x="540" y="330" as="sourcePoint" />
            <mxPoint x="620" y="330" as="targetPoint" />
          </mxGeometry>
        </mxCell>
        <mxCell id="wRoqTPfpPeOx7HwXdz7i-13" value="" style="endArrow=none;html=1;rounded=0;fontStyle=1" edge="1" parent="wRoqTPfpPeOx7HwXdz7i-1">
          <mxGeometry width="50" height="50" relative="1" as="geometry">
            <mxPoint x="550" y="340" as="sourcePoint" />
            <mxPoint x="610" y="340" as="targetPoint" />
            <Array as="points">
              <mxPoint x="590" y="340" />
            </Array>
          </mxGeometry>
        </mxCell>
        <mxCell id="wRoqTPfpPeOx7HwXdz7i-14" value="" style="endArrow=none;html=1;rounded=0;fontStyle=1" edge="1" parent="wRoqTPfpPeOx7HwXdz7i-1">
          <mxGeometry width="50" height="50" relative="1" as="geometry">
            <mxPoint x="560" y="350" as="sourcePoint" />
            <mxPoint x="600" y="350" as="targetPoint" />
          </mxGeometry>
        </mxCell>
        <mxCell id="wRoqTPfpPeOx7HwXdz7i-15" value="" style="endArrow=classic;html=1;rounded=0;exitX=0.5;exitY=1;exitDx=0;exitDy=0;fontStyle=1" edge="1" parent="wRoqTPfpPeOx7HwXdz7i-1" source="wRoqTPfpPeOx7HwXdz7i-10">
          <mxGeometry width="50" height="50" relative="1" as="geometry">
            <mxPoint x="556" y="350" as="sourcePoint" />
            <mxPoint x="460" y="350" as="targetPoint" />
          </mxGeometry>
        </mxCell>
      </root>
    </mxGraphModel>
  </diagram>
  <diagram name="Etapa 5.3" id="ZmJpQDpkQ7Sx5bk17vbt">
    <mxGraphModel dx="1434" dy="780" grid="1" gridSize="10" guides="1" tooltips="1" connect="1" arrows="1" fold="1" page="1" pageScale="1" pageWidth="827" pageHeight="1169" math="0" shadow="0">
      <root>
        <mxCell id="WWknoHTC_RBprNIl53Ys-0" />
        <mxCell id="WWknoHTC_RBprNIl53Ys-1" parent="WWknoHTC_RBprNIl53Ys-0" />
        <mxCell id="WWknoHTC_RBprNIl53Ys-2" value="" style="endArrow=classic;html=1;rounded=0;" edge="1" parent="WWknoHTC_RBprNIl53Ys-1">
          <mxGeometry width="50" height="50" relative="1" as="geometry">
            <mxPoint x="410" y="140" as="sourcePoint" />
            <mxPoint x="410" y="200" as="targetPoint" />
          </mxGeometry>
        </mxCell>
        <mxCell id="WWknoHTC_RBprNIl53Ys-3" value="TOPO" style="text;html=1;align=center;verticalAlign=middle;whiteSpace=wrap;rounded=0;fontSize=16;" vertex="1" parent="WWknoHTC_RBprNIl53Ys-1">
          <mxGeometry x="380" y="110" width="60" height="30" as="geometry" />
        </mxCell>
        <mxCell id="WWknoHTC_RBprNIl53Ys-4" value="" style="whiteSpace=wrap;html=1;aspect=fixed;fontStyle=1" vertex="1" parent="WWknoHTC_RBprNIl53Ys-1">
          <mxGeometry x="370" y="320" width="80" height="80" as="geometry" />
        </mxCell>
        <mxCell id="WWknoHTC_RBprNIl53Ys-5" value="6" style="text;html=1;align=center;verticalAlign=middle;whiteSpace=wrap;rounded=0;fontSize=16;fontStyle=1" vertex="1" parent="WWknoHTC_RBprNIl53Ys-1">
          <mxGeometry x="380" y="345" width="60" height="30" as="geometry" />
        </mxCell>
        <mxCell id="WWknoHTC_RBprNIl53Ys-6" value="" style="endArrow=none;html=1;rounded=0;fontStyle=1" edge="1" parent="WWknoHTC_RBprNIl53Ys-1">
          <mxGeometry width="50" height="50" relative="1" as="geometry">
            <mxPoint x="370" y="440" as="sourcePoint" />
            <mxPoint x="450" y="440" as="targetPoint" />
          </mxGeometry>
        </mxCell>
        <mxCell id="WWknoHTC_RBprNIl53Ys-7" value="" style="endArrow=none;html=1;rounded=0;fontStyle=1" edge="1" parent="WWknoHTC_RBprNIl53Ys-1">
          <mxGeometry width="50" height="50" relative="1" as="geometry">
            <mxPoint x="380" y="450" as="sourcePoint" />
            <mxPoint x="440" y="450" as="targetPoint" />
            <Array as="points">
              <mxPoint x="420" y="450" />
            </Array>
          </mxGeometry>
        </mxCell>
        <mxCell id="WWknoHTC_RBprNIl53Ys-8" value="" style="endArrow=none;html=1;rounded=0;fontStyle=1" edge="1" parent="WWknoHTC_RBprNIl53Ys-1">
          <mxGeometry width="50" height="50" relative="1" as="geometry">
            <mxPoint x="390" y="460" as="sourcePoint" />
            <mxPoint x="430" y="460" as="targetPoint" />
          </mxGeometry>
        </mxCell>
        <mxCell id="WWknoHTC_RBprNIl53Ys-9" value="" style="endArrow=classic;html=1;rounded=0;exitX=0.5;exitY=1;exitDx=0;exitDy=0;fontStyle=1" edge="1" parent="WWknoHTC_RBprNIl53Ys-1" source="WWknoHTC_RBprNIl53Ys-4">
          <mxGeometry width="50" height="50" relative="1" as="geometry">
            <mxPoint x="566" y="350" as="sourcePoint" />
            <mxPoint x="410" y="440" as="targetPoint" />
          </mxGeometry>
        </mxCell>
        <mxCell id="WWknoHTC_RBprNIl53Ys-10" value="" style="whiteSpace=wrap;html=1;aspect=fixed;fontStyle=1" vertex="1" parent="WWknoHTC_RBprNIl53Ys-1">
          <mxGeometry x="370" y="200" width="80" height="80" as="geometry" />
        </mxCell>
        <mxCell id="WWknoHTC_RBprNIl53Ys-11" value="2" style="text;html=1;align=center;verticalAlign=middle;whiteSpace=wrap;rounded=0;fontSize=16;fontStyle=1" vertex="1" parent="WWknoHTC_RBprNIl53Ys-1">
          <mxGeometry x="380" y="225" width="60" height="30" as="geometry" />
        </mxCell>
        <mxCell id="WWknoHTC_RBprNIl53Ys-15" value="" style="endArrow=classic;html=1;rounded=0;exitX=0.5;exitY=1;exitDx=0;exitDy=0;fontStyle=1;entryX=0.5;entryY=0;entryDx=0;entryDy=0;" edge="1" parent="WWknoHTC_RBprNIl53Ys-1" source="WWknoHTC_RBprNIl53Ys-10" target="WWknoHTC_RBprNIl53Ys-4">
          <mxGeometry width="50" height="50" relative="1" as="geometry">
            <mxPoint x="556" y="350" as="sourcePoint" />
            <mxPoint x="460" y="350" as="targetPoint" />
          </mxGeometry>
        </mxCell>
      </root>
    </mxGraphModel>
  </diagram>
  <diagram name="Etapa 6.1" id="9JBkKNDpjZ6gvcbz-RqN">
    <mxGraphModel dx="1434" dy="780" grid="1" gridSize="10" guides="1" tooltips="1" connect="1" arrows="1" fold="1" page="1" pageScale="1" pageWidth="827" pageHeight="1169" math="0" shadow="0">
      <root>
        <mxCell id="QV-wnsgXeri7l5x6oi5m-0" />
        <mxCell id="QV-wnsgXeri7l5x6oi5m-1" parent="QV-wnsgXeri7l5x6oi5m-0" />
        <mxCell id="QV-wnsgXeri7l5x6oi5m-2" value="" style="endArrow=classic;html=1;rounded=0;" edge="1" parent="QV-wnsgXeri7l5x6oi5m-1">
          <mxGeometry width="50" height="50" relative="1" as="geometry">
            <mxPoint x="410" y="140" as="sourcePoint" />
            <mxPoint x="410" y="200" as="targetPoint" />
          </mxGeometry>
        </mxCell>
        <mxCell id="QV-wnsgXeri7l5x6oi5m-3" value="TOPO" style="text;html=1;align=center;verticalAlign=middle;whiteSpace=wrap;rounded=0;fontSize=16;" vertex="1" parent="QV-wnsgXeri7l5x6oi5m-1">
          <mxGeometry x="380" y="110" width="60" height="30" as="geometry" />
        </mxCell>
        <mxCell id="QV-wnsgXeri7l5x6oi5m-4" value="" style="whiteSpace=wrap;html=1;aspect=fixed;fontStyle=1" vertex="1" parent="QV-wnsgXeri7l5x6oi5m-1">
          <mxGeometry x="370" y="320" width="80" height="80" as="geometry" />
        </mxCell>
        <mxCell id="QV-wnsgXeri7l5x6oi5m-5" value="6" style="text;html=1;align=center;verticalAlign=middle;whiteSpace=wrap;rounded=0;fontSize=16;fontStyle=1" vertex="1" parent="QV-wnsgXeri7l5x6oi5m-1">
          <mxGeometry x="380" y="345" width="60" height="30" as="geometry" />
        </mxCell>
        <mxCell id="QV-wnsgXeri7l5x6oi5m-6" value="" style="endArrow=none;html=1;rounded=0;fontStyle=1" edge="1" parent="QV-wnsgXeri7l5x6oi5m-1">
          <mxGeometry width="50" height="50" relative="1" as="geometry">
            <mxPoint x="370" y="440" as="sourcePoint" />
            <mxPoint x="450" y="440" as="targetPoint" />
          </mxGeometry>
        </mxCell>
        <mxCell id="QV-wnsgXeri7l5x6oi5m-7" value="" style="endArrow=none;html=1;rounded=0;fontStyle=1" edge="1" parent="QV-wnsgXeri7l5x6oi5m-1">
          <mxGeometry width="50" height="50" relative="1" as="geometry">
            <mxPoint x="380" y="450" as="sourcePoint" />
            <mxPoint x="440" y="450" as="targetPoint" />
            <Array as="points">
              <mxPoint x="420" y="450" />
            </Array>
          </mxGeometry>
        </mxCell>
        <mxCell id="QV-wnsgXeri7l5x6oi5m-8" value="" style="endArrow=none;html=1;rounded=0;fontStyle=1" edge="1" parent="QV-wnsgXeri7l5x6oi5m-1">
          <mxGeometry width="50" height="50" relative="1" as="geometry">
            <mxPoint x="390" y="460" as="sourcePoint" />
            <mxPoint x="430" y="460" as="targetPoint" />
          </mxGeometry>
        </mxCell>
        <mxCell id="QV-wnsgXeri7l5x6oi5m-9" value="" style="endArrow=classic;html=1;rounded=0;exitX=0.5;exitY=1;exitDx=0;exitDy=0;fontStyle=1" edge="1" parent="QV-wnsgXeri7l5x6oi5m-1" source="QV-wnsgXeri7l5x6oi5m-4">
          <mxGeometry width="50" height="50" relative="1" as="geometry">
            <mxPoint x="566" y="350" as="sourcePoint" />
            <mxPoint x="410" y="440" as="targetPoint" />
          </mxGeometry>
        </mxCell>
        <mxCell id="QV-wnsgXeri7l5x6oi5m-10" value="" style="whiteSpace=wrap;html=1;aspect=fixed;fontStyle=1" vertex="1" parent="QV-wnsgXeri7l5x6oi5m-1">
          <mxGeometry x="370" y="200" width="80" height="80" as="geometry" />
        </mxCell>
        <mxCell id="QV-wnsgXeri7l5x6oi5m-11" value="2" style="text;html=1;align=center;verticalAlign=middle;whiteSpace=wrap;rounded=0;fontSize=16;fontStyle=1" vertex="1" parent="QV-wnsgXeri7l5x6oi5m-1">
          <mxGeometry x="380" y="225" width="60" height="30" as="geometry" />
        </mxCell>
        <mxCell id="QV-wnsgXeri7l5x6oi5m-12" value="" style="endArrow=classic;html=1;rounded=0;exitX=0.5;exitY=1;exitDx=0;exitDy=0;fontStyle=1;entryX=0.5;entryY=0;entryDx=0;entryDy=0;" edge="1" parent="QV-wnsgXeri7l5x6oi5m-1" source="QV-wnsgXeri7l5x6oi5m-10" target="QV-wnsgXeri7l5x6oi5m-4">
          <mxGeometry width="50" height="50" relative="1" as="geometry">
            <mxPoint x="556" y="350" as="sourcePoint" />
            <mxPoint x="460" y="350" as="targetPoint" />
          </mxGeometry>
        </mxCell>
        <mxCell id="nre3PiWPJC75AEqueIMW-0" value="AUX" style="text;html=1;align=center;verticalAlign=middle;whiteSpace=wrap;rounded=0;fontSize=16;" vertex="1" parent="QV-wnsgXeri7l5x6oi5m-1">
          <mxGeometry x="480" y="110" width="60" height="30" as="geometry" />
        </mxCell>
        <mxCell id="nre3PiWPJC75AEqueIMW-1" value="" style="endArrow=classic;html=1;rounded=0;" edge="1" parent="QV-wnsgXeri7l5x6oi5m-1">
          <mxGeometry width="50" height="50" relative="1" as="geometry">
            <mxPoint x="500" y="140" as="sourcePoint" />
            <mxPoint x="430" y="190" as="targetPoint" />
          </mxGeometry>
        </mxCell>
      </root>
    </mxGraphModel>
  </diagram>
  <diagram name="Etapa 6.2" id="pdaGiMS0ADpNambpDWpp">
    <mxGraphModel dx="1434" dy="780" grid="1" gridSize="10" guides="1" tooltips="1" connect="1" arrows="1" fold="1" page="1" pageScale="1" pageWidth="827" pageHeight="1169" math="0" shadow="0">
      <root>
        <mxCell id="5vZic0SJ8JM9rMVXpkpE-0" />
        <mxCell id="5vZic0SJ8JM9rMVXpkpE-1" parent="5vZic0SJ8JM9rMVXpkpE-0" />
        <mxCell id="5vZic0SJ8JM9rMVXpkpE-2" value="" style="endArrow=classic;html=1;rounded=0;" edge="1" parent="5vZic0SJ8JM9rMVXpkpE-1">
          <mxGeometry width="50" height="50" relative="1" as="geometry">
            <mxPoint x="299.5" y="300" as="sourcePoint" />
            <mxPoint x="360" y="360" as="targetPoint" />
          </mxGeometry>
        </mxCell>
        <mxCell id="5vZic0SJ8JM9rMVXpkpE-3" value="TOPO" style="text;html=1;align=center;verticalAlign=middle;whiteSpace=wrap;rounded=0;fontSize=16;" vertex="1" parent="5vZic0SJ8JM9rMVXpkpE-1">
          <mxGeometry x="270" y="270" width="60" height="30" as="geometry" />
        </mxCell>
        <mxCell id="5vZic0SJ8JM9rMVXpkpE-4" value="" style="whiteSpace=wrap;html=1;aspect=fixed;fontStyle=1" vertex="1" parent="5vZic0SJ8JM9rMVXpkpE-1">
          <mxGeometry x="370" y="320" width="80" height="80" as="geometry" />
        </mxCell>
        <mxCell id="5vZic0SJ8JM9rMVXpkpE-5" value="6" style="text;html=1;align=center;verticalAlign=middle;whiteSpace=wrap;rounded=0;fontSize=16;fontStyle=1" vertex="1" parent="5vZic0SJ8JM9rMVXpkpE-1">
          <mxGeometry x="380" y="345" width="60" height="30" as="geometry" />
        </mxCell>
        <mxCell id="5vZic0SJ8JM9rMVXpkpE-6" value="" style="endArrow=none;html=1;rounded=0;fontStyle=1" edge="1" parent="5vZic0SJ8JM9rMVXpkpE-1">
          <mxGeometry width="50" height="50" relative="1" as="geometry">
            <mxPoint x="370" y="440" as="sourcePoint" />
            <mxPoint x="450" y="440" as="targetPoint" />
          </mxGeometry>
        </mxCell>
        <mxCell id="5vZic0SJ8JM9rMVXpkpE-7" value="" style="endArrow=none;html=1;rounded=0;fontStyle=1" edge="1" parent="5vZic0SJ8JM9rMVXpkpE-1">
          <mxGeometry width="50" height="50" relative="1" as="geometry">
            <mxPoint x="380" y="450" as="sourcePoint" />
            <mxPoint x="440" y="450" as="targetPoint" />
            <Array as="points">
              <mxPoint x="420" y="450" />
            </Array>
          </mxGeometry>
        </mxCell>
        <mxCell id="5vZic0SJ8JM9rMVXpkpE-8" value="" style="endArrow=none;html=1;rounded=0;fontStyle=1" edge="1" parent="5vZic0SJ8JM9rMVXpkpE-1">
          <mxGeometry width="50" height="50" relative="1" as="geometry">
            <mxPoint x="390" y="460" as="sourcePoint" />
            <mxPoint x="430" y="460" as="targetPoint" />
          </mxGeometry>
        </mxCell>
        <mxCell id="5vZic0SJ8JM9rMVXpkpE-9" value="" style="endArrow=classic;html=1;rounded=0;exitX=0.5;exitY=1;exitDx=0;exitDy=0;fontStyle=1" edge="1" parent="5vZic0SJ8JM9rMVXpkpE-1" source="5vZic0SJ8JM9rMVXpkpE-4">
          <mxGeometry width="50" height="50" relative="1" as="geometry">
            <mxPoint x="566" y="350" as="sourcePoint" />
            <mxPoint x="410" y="440" as="targetPoint" />
          </mxGeometry>
        </mxCell>
        <mxCell id="5vZic0SJ8JM9rMVXpkpE-10" value="" style="whiteSpace=wrap;html=1;aspect=fixed;fontStyle=1" vertex="1" parent="5vZic0SJ8JM9rMVXpkpE-1">
          <mxGeometry x="370" y="200" width="80" height="80" as="geometry" />
        </mxCell>
        <mxCell id="5vZic0SJ8JM9rMVXpkpE-11" value="2" style="text;html=1;align=center;verticalAlign=middle;whiteSpace=wrap;rounded=0;fontSize=16;fontStyle=1" vertex="1" parent="5vZic0SJ8JM9rMVXpkpE-1">
          <mxGeometry x="380" y="225" width="60" height="30" as="geometry" />
        </mxCell>
        <mxCell id="5vZic0SJ8JM9rMVXpkpE-12" value="" style="endArrow=classic;html=1;rounded=0;exitX=0.5;exitY=1;exitDx=0;exitDy=0;fontStyle=1;entryX=0.5;entryY=0;entryDx=0;entryDy=0;" edge="1" parent="5vZic0SJ8JM9rMVXpkpE-1" source="5vZic0SJ8JM9rMVXpkpE-10" target="5vZic0SJ8JM9rMVXpkpE-4">
          <mxGeometry width="50" height="50" relative="1" as="geometry">
            <mxPoint x="556" y="350" as="sourcePoint" />
            <mxPoint x="460" y="350" as="targetPoint" />
          </mxGeometry>
        </mxCell>
        <mxCell id="5vZic0SJ8JM9rMVXpkpE-13" value="AUX" style="text;html=1;align=center;verticalAlign=middle;whiteSpace=wrap;rounded=0;fontSize=16;" vertex="1" parent="5vZic0SJ8JM9rMVXpkpE-1">
          <mxGeometry x="480" y="110" width="60" height="30" as="geometry" />
        </mxCell>
        <mxCell id="5vZic0SJ8JM9rMVXpkpE-14" value="" style="endArrow=classic;html=1;rounded=0;" edge="1" parent="5vZic0SJ8JM9rMVXpkpE-1">
          <mxGeometry width="50" height="50" relative="1" as="geometry">
            <mxPoint x="500" y="140" as="sourcePoint" />
            <mxPoint x="430" y="190" as="targetPoint" />
          </mxGeometry>
        </mxCell>
      </root>
    </mxGraphModel>
  </diagram>
  <diagram name="Etapa 6.3" id="cZYsp9ugQV3T50mvbNI9">
    <mxGraphModel dx="1434" dy="780" grid="1" gridSize="10" guides="1" tooltips="1" connect="1" arrows="1" fold="1" page="1" pageScale="1" pageWidth="827" pageHeight="1169" math="0" shadow="0">
      <root>
        <mxCell id="K-WMEI5mdqGj4_rCteY6-0" />
        <mxCell id="K-WMEI5mdqGj4_rCteY6-1" parent="K-WMEI5mdqGj4_rCteY6-0" />
        <mxCell id="K-WMEI5mdqGj4_rCteY6-2" value="" style="endArrow=classic;html=1;rounded=0;" edge="1" parent="K-WMEI5mdqGj4_rCteY6-1">
          <mxGeometry width="50" height="50" relative="1" as="geometry">
            <mxPoint x="299.5" y="300" as="sourcePoint" />
            <mxPoint x="360" y="360" as="targetPoint" />
          </mxGeometry>
        </mxCell>
        <mxCell id="K-WMEI5mdqGj4_rCteY6-3" value="TOPO" style="text;html=1;align=center;verticalAlign=middle;whiteSpace=wrap;rounded=0;fontSize=16;" vertex="1" parent="K-WMEI5mdqGj4_rCteY6-1">
          <mxGeometry x="270" y="270" width="60" height="30" as="geometry" />
        </mxCell>
        <mxCell id="K-WMEI5mdqGj4_rCteY6-4" value="" style="whiteSpace=wrap;html=1;aspect=fixed;fontStyle=1" vertex="1" parent="K-WMEI5mdqGj4_rCteY6-1">
          <mxGeometry x="370" y="320" width="80" height="80" as="geometry" />
        </mxCell>
        <mxCell id="K-WMEI5mdqGj4_rCteY6-5" value="6" style="text;html=1;align=center;verticalAlign=middle;whiteSpace=wrap;rounded=0;fontSize=16;fontStyle=1" vertex="1" parent="K-WMEI5mdqGj4_rCteY6-1">
          <mxGeometry x="380" y="345" width="60" height="30" as="geometry" />
        </mxCell>
        <mxCell id="K-WMEI5mdqGj4_rCteY6-6" value="" style="endArrow=none;html=1;rounded=0;fontStyle=1" edge="1" parent="K-WMEI5mdqGj4_rCteY6-1">
          <mxGeometry width="50" height="50" relative="1" as="geometry">
            <mxPoint x="370" y="440" as="sourcePoint" />
            <mxPoint x="450" y="440" as="targetPoint" />
          </mxGeometry>
        </mxCell>
        <mxCell id="K-WMEI5mdqGj4_rCteY6-7" value="" style="endArrow=none;html=1;rounded=0;fontStyle=1" edge="1" parent="K-WMEI5mdqGj4_rCteY6-1">
          <mxGeometry width="50" height="50" relative="1" as="geometry">
            <mxPoint x="380" y="450" as="sourcePoint" />
            <mxPoint x="440" y="450" as="targetPoint" />
            <Array as="points">
              <mxPoint x="420" y="450" />
            </Array>
          </mxGeometry>
        </mxCell>
        <mxCell id="K-WMEI5mdqGj4_rCteY6-8" value="" style="endArrow=none;html=1;rounded=0;fontStyle=1" edge="1" parent="K-WMEI5mdqGj4_rCteY6-1">
          <mxGeometry width="50" height="50" relative="1" as="geometry">
            <mxPoint x="390" y="460" as="sourcePoint" />
            <mxPoint x="430" y="460" as="targetPoint" />
          </mxGeometry>
        </mxCell>
        <mxCell id="K-WMEI5mdqGj4_rCteY6-9" value="" style="endArrow=classic;html=1;rounded=0;exitX=0.5;exitY=1;exitDx=0;exitDy=0;fontStyle=1" edge="1" parent="K-WMEI5mdqGj4_rCteY6-1" source="K-WMEI5mdqGj4_rCteY6-4">
          <mxGeometry width="50" height="50" relative="1" as="geometry">
            <mxPoint x="566" y="350" as="sourcePoint" />
            <mxPoint x="410" y="440" as="targetPoint" />
          </mxGeometry>
        </mxCell>
        <mxCell id="K-WMEI5mdqGj4_rCteY6-10" value="" style="whiteSpace=wrap;html=1;aspect=fixed;fontStyle=1" vertex="1" parent="K-WMEI5mdqGj4_rCteY6-1">
          <mxGeometry x="370" y="200" width="80" height="80" as="geometry" />
        </mxCell>
        <mxCell id="K-WMEI5mdqGj4_rCteY6-11" value="15" style="text;html=1;align=center;verticalAlign=middle;whiteSpace=wrap;rounded=0;fontSize=16;fontStyle=1" vertex="1" parent="K-WMEI5mdqGj4_rCteY6-1">
          <mxGeometry x="380" y="225" width="60" height="30" as="geometry" />
        </mxCell>
        <mxCell id="K-WMEI5mdqGj4_rCteY6-12" value="" style="endArrow=classic;html=1;rounded=0;exitX=0.5;exitY=1;exitDx=0;exitDy=0;fontStyle=1;entryX=0.5;entryY=0;entryDx=0;entryDy=0;" edge="1" parent="K-WMEI5mdqGj4_rCteY6-1" source="K-WMEI5mdqGj4_rCteY6-10" target="K-WMEI5mdqGj4_rCteY6-4">
          <mxGeometry width="50" height="50" relative="1" as="geometry">
            <mxPoint x="556" y="350" as="sourcePoint" />
            <mxPoint x="460" y="350" as="targetPoint" />
          </mxGeometry>
        </mxCell>
        <mxCell id="K-WMEI5mdqGj4_rCteY6-13" value="AUX" style="text;html=1;align=center;verticalAlign=middle;whiteSpace=wrap;rounded=0;fontSize=16;" vertex="1" parent="K-WMEI5mdqGj4_rCteY6-1">
          <mxGeometry x="480" y="110" width="60" height="30" as="geometry" />
        </mxCell>
        <mxCell id="K-WMEI5mdqGj4_rCteY6-14" value="" style="endArrow=classic;html=1;rounded=0;" edge="1" parent="K-WMEI5mdqGj4_rCteY6-1">
          <mxGeometry width="50" height="50" relative="1" as="geometry">
            <mxPoint x="500" y="140" as="sourcePoint" />
            <mxPoint x="430" y="190" as="targetPoint" />
          </mxGeometry>
        </mxCell>
        <mxCell id="u41jdM3BfDz_LBUQT0Ps-0" value="" style="verticalLabelPosition=bottom;verticalAlign=top;html=1;shape=mxgraph.basic.x;fillColor=#FF7112;strokeColor=#b85450;gradientColor=none;" vertex="1" parent="K-WMEI5mdqGj4_rCteY6-1">
          <mxGeometry x="370" y="208.12" width="80" height="63.75" as="geometry" />
        </mxCell>
      </root>
    </mxGraphModel>
  </diagram>
  <diagram name="Etapa 6.4" id="2V7zMBQeScFMEbIWrVy1">
    <mxGraphModel dx="1434" dy="780" grid="1" gridSize="10" guides="1" tooltips="1" connect="1" arrows="1" fold="1" page="1" pageScale="1" pageWidth="827" pageHeight="1169" math="0" shadow="0">
      <root>
        <mxCell id="-PHmM0vSA83GWb4nPfiH-0" />
        <mxCell id="-PHmM0vSA83GWb4nPfiH-1" parent="-PHmM0vSA83GWb4nPfiH-0" />
        <mxCell id="-PHmM0vSA83GWb4nPfiH-2" value="" style="endArrow=classic;html=1;rounded=0;" edge="1" parent="-PHmM0vSA83GWb4nPfiH-1">
          <mxGeometry width="50" height="50" relative="1" as="geometry">
            <mxPoint x="410" y="250" as="sourcePoint" />
            <mxPoint x="410" y="310" as="targetPoint" />
          </mxGeometry>
        </mxCell>
        <mxCell id="-PHmM0vSA83GWb4nPfiH-3" value="TOPO" style="text;html=1;align=center;verticalAlign=middle;whiteSpace=wrap;rounded=0;fontSize=16;" vertex="1" parent="-PHmM0vSA83GWb4nPfiH-1">
          <mxGeometry x="380" y="220" width="60" height="30" as="geometry" />
        </mxCell>
        <mxCell id="-PHmM0vSA83GWb4nPfiH-4" value="" style="whiteSpace=wrap;html=1;aspect=fixed;fontStyle=1" vertex="1" parent="-PHmM0vSA83GWb4nPfiH-1">
          <mxGeometry x="370" y="320" width="80" height="80" as="geometry" />
        </mxCell>
        <mxCell id="-PHmM0vSA83GWb4nPfiH-5" value="6" style="text;html=1;align=center;verticalAlign=middle;whiteSpace=wrap;rounded=0;fontSize=16;fontStyle=1" vertex="1" parent="-PHmM0vSA83GWb4nPfiH-1">
          <mxGeometry x="380" y="345" width="60" height="30" as="geometry" />
        </mxCell>
        <mxCell id="-PHmM0vSA83GWb4nPfiH-6" value="" style="endArrow=none;html=1;rounded=0;fontStyle=1" edge="1" parent="-PHmM0vSA83GWb4nPfiH-1">
          <mxGeometry width="50" height="50" relative="1" as="geometry">
            <mxPoint x="370" y="440" as="sourcePoint" />
            <mxPoint x="450" y="440" as="targetPoint" />
          </mxGeometry>
        </mxCell>
        <mxCell id="-PHmM0vSA83GWb4nPfiH-7" value="" style="endArrow=none;html=1;rounded=0;fontStyle=1" edge="1" parent="-PHmM0vSA83GWb4nPfiH-1">
          <mxGeometry width="50" height="50" relative="1" as="geometry">
            <mxPoint x="380" y="450" as="sourcePoint" />
            <mxPoint x="440" y="450" as="targetPoint" />
            <Array as="points">
              <mxPoint x="420" y="450" />
            </Array>
          </mxGeometry>
        </mxCell>
        <mxCell id="-PHmM0vSA83GWb4nPfiH-8" value="" style="endArrow=none;html=1;rounded=0;fontStyle=1" edge="1" parent="-PHmM0vSA83GWb4nPfiH-1">
          <mxGeometry width="50" height="50" relative="1" as="geometry">
            <mxPoint x="390" y="460" as="sourcePoint" />
            <mxPoint x="430" y="460" as="targetPoint" />
          </mxGeometry>
        </mxCell>
        <mxCell id="-PHmM0vSA83GWb4nPfiH-9" value="" style="endArrow=classic;html=1;rounded=0;exitX=0.5;exitY=1;exitDx=0;exitDy=0;fontStyle=1" edge="1" parent="-PHmM0vSA83GWb4nPfiH-1" source="-PHmM0vSA83GWb4nPfiH-4">
          <mxGeometry width="50" height="50" relative="1" as="geometry">
            <mxPoint x="566" y="350" as="sourcePoint" />
            <mxPoint x="410" y="440" as="targetPoint" />
          </mxGeometry>
        </mxCell>
      </root>
    </mxGraphModel>
  </diagram>
  <diagram name="Etapa 7.1" id="OOk0UG7OOsSw9UypKoTf">
    <mxGraphModel dx="1434" dy="780" grid="1" gridSize="10" guides="1" tooltips="1" connect="1" arrows="1" fold="1" page="1" pageScale="1" pageWidth="827" pageHeight="1169" math="0" shadow="0">
      <root>
        <mxCell id="7EEyEojV5FuKRe_qTcQs-0" />
        <mxCell id="7EEyEojV5FuKRe_qTcQs-1" parent="7EEyEojV5FuKRe_qTcQs-0" />
        <mxCell id="7EEyEojV5FuKRe_qTcQs-2" value="" style="endArrow=classic;html=1;rounded=0;" edge="1" parent="7EEyEojV5FuKRe_qTcQs-1">
          <mxGeometry width="50" height="50" relative="1" as="geometry">
            <mxPoint x="410" y="250" as="sourcePoint" />
            <mxPoint x="410" y="310" as="targetPoint" />
          </mxGeometry>
        </mxCell>
        <mxCell id="7EEyEojV5FuKRe_qTcQs-3" value="TOPO" style="text;html=1;align=center;verticalAlign=middle;whiteSpace=wrap;rounded=0;fontSize=16;" vertex="1" parent="7EEyEojV5FuKRe_qTcQs-1">
          <mxGeometry x="380" y="220" width="60" height="30" as="geometry" />
        </mxCell>
        <mxCell id="7EEyEojV5FuKRe_qTcQs-4" value="" style="whiteSpace=wrap;html=1;aspect=fixed;fontStyle=1" vertex="1" parent="7EEyEojV5FuKRe_qTcQs-1">
          <mxGeometry x="370" y="320" width="80" height="80" as="geometry" />
        </mxCell>
        <mxCell id="7EEyEojV5FuKRe_qTcQs-5" value="6" style="text;html=1;align=center;verticalAlign=middle;whiteSpace=wrap;rounded=0;fontSize=16;fontStyle=1" vertex="1" parent="7EEyEojV5FuKRe_qTcQs-1">
          <mxGeometry x="380" y="345" width="60" height="30" as="geometry" />
        </mxCell>
        <mxCell id="7EEyEojV5FuKRe_qTcQs-6" value="" style="endArrow=none;html=1;rounded=0;fontStyle=1" edge="1" parent="7EEyEojV5FuKRe_qTcQs-1">
          <mxGeometry width="50" height="50" relative="1" as="geometry">
            <mxPoint x="370" y="440" as="sourcePoint" />
            <mxPoint x="450" y="440" as="targetPoint" />
          </mxGeometry>
        </mxCell>
        <mxCell id="7EEyEojV5FuKRe_qTcQs-7" value="" style="endArrow=none;html=1;rounded=0;fontStyle=1" edge="1" parent="7EEyEojV5FuKRe_qTcQs-1">
          <mxGeometry width="50" height="50" relative="1" as="geometry">
            <mxPoint x="380" y="450" as="sourcePoint" />
            <mxPoint x="440" y="450" as="targetPoint" />
            <Array as="points">
              <mxPoint x="420" y="450" />
            </Array>
          </mxGeometry>
        </mxCell>
        <mxCell id="7EEyEojV5FuKRe_qTcQs-8" value="" style="endArrow=none;html=1;rounded=0;fontStyle=1" edge="1" parent="7EEyEojV5FuKRe_qTcQs-1">
          <mxGeometry width="50" height="50" relative="1" as="geometry">
            <mxPoint x="390" y="460" as="sourcePoint" />
            <mxPoint x="430" y="460" as="targetPoint" />
          </mxGeometry>
        </mxCell>
        <mxCell id="7EEyEojV5FuKRe_qTcQs-9" value="" style="endArrow=classic;html=1;rounded=0;exitX=0.5;exitY=1;exitDx=0;exitDy=0;fontStyle=1" edge="1" parent="7EEyEojV5FuKRe_qTcQs-1" source="7EEyEojV5FuKRe_qTcQs-4">
          <mxGeometry width="50" height="50" relative="1" as="geometry">
            <mxPoint x="566" y="350" as="sourcePoint" />
            <mxPoint x="410" y="440" as="targetPoint" />
          </mxGeometry>
        </mxCell>
        <mxCell id="7EEyEojV5FuKRe_qTcQs-10" value="" style="whiteSpace=wrap;html=1;aspect=fixed;fontStyle=1" vertex="1" parent="7EEyEojV5FuKRe_qTcQs-1">
          <mxGeometry x="540" y="210" width="80" height="80" as="geometry" />
        </mxCell>
        <mxCell id="7EEyEojV5FuKRe_qTcQs-11" value="8" style="text;html=1;align=center;verticalAlign=middle;whiteSpace=wrap;rounded=0;fontSize=16;fontStyle=1" vertex="1" parent="7EEyEojV5FuKRe_qTcQs-1">
          <mxGeometry x="550" y="235" width="60" height="30" as="geometry" />
        </mxCell>
        <mxCell id="7EEyEojV5FuKRe_qTcQs-12" value="" style="endArrow=none;html=1;rounded=0;fontStyle=1" edge="1" parent="7EEyEojV5FuKRe_qTcQs-1">
          <mxGeometry width="50" height="50" relative="1" as="geometry">
            <mxPoint x="540" y="330" as="sourcePoint" />
            <mxPoint x="620" y="330" as="targetPoint" />
          </mxGeometry>
        </mxCell>
        <mxCell id="7EEyEojV5FuKRe_qTcQs-13" value="" style="endArrow=none;html=1;rounded=0;fontStyle=1" edge="1" parent="7EEyEojV5FuKRe_qTcQs-1">
          <mxGeometry width="50" height="50" relative="1" as="geometry">
            <mxPoint x="550" y="340" as="sourcePoint" />
            <mxPoint x="610" y="340" as="targetPoint" />
            <Array as="points">
              <mxPoint x="590" y="340" />
            </Array>
          </mxGeometry>
        </mxCell>
        <mxCell id="7EEyEojV5FuKRe_qTcQs-14" value="" style="endArrow=none;html=1;rounded=0;fontStyle=1" edge="1" parent="7EEyEojV5FuKRe_qTcQs-1">
          <mxGeometry width="50" height="50" relative="1" as="geometry">
            <mxPoint x="560" y="350" as="sourcePoint" />
            <mxPoint x="600" y="350" as="targetPoint" />
          </mxGeometry>
        </mxCell>
        <mxCell id="7EEyEojV5FuKRe_qTcQs-15" value="" style="endArrow=classic;html=1;rounded=0;exitX=0.5;exitY=1;exitDx=0;exitDy=0;fontStyle=1" edge="1" parent="7EEyEojV5FuKRe_qTcQs-1" source="7EEyEojV5FuKRe_qTcQs-10">
          <mxGeometry width="50" height="50" relative="1" as="geometry">
            <mxPoint x="556" y="350" as="sourcePoint" />
            <mxPoint x="580" y="320" as="targetPoint" />
          </mxGeometry>
        </mxCell>
      </root>
    </mxGraphModel>
  </diagram>
  <diagram name="Etapa 7.2" id="tbETfeNn0WXwlNdnbp0O">
    <mxGraphModel dx="1434" dy="780" grid="1" gridSize="10" guides="1" tooltips="1" connect="1" arrows="1" fold="1" page="1" pageScale="1" pageWidth="827" pageHeight="1169" math="0" shadow="0">
      <root>
        <mxCell id="zt8t_xgX9AJJjSLp34bd-0" />
        <mxCell id="zt8t_xgX9AJJjSLp34bd-1" parent="zt8t_xgX9AJJjSLp34bd-0" />
        <mxCell id="zt8t_xgX9AJJjSLp34bd-2" value="" style="endArrow=classic;html=1;rounded=0;" edge="1" parent="zt8t_xgX9AJJjSLp34bd-1">
          <mxGeometry width="50" height="50" relative="1" as="geometry">
            <mxPoint x="410" y="250" as="sourcePoint" />
            <mxPoint x="410" y="310" as="targetPoint" />
          </mxGeometry>
        </mxCell>
        <mxCell id="zt8t_xgX9AJJjSLp34bd-3" value="TOPO" style="text;html=1;align=center;verticalAlign=middle;whiteSpace=wrap;rounded=0;fontSize=16;" vertex="1" parent="zt8t_xgX9AJJjSLp34bd-1">
          <mxGeometry x="380" y="220" width="60" height="30" as="geometry" />
        </mxCell>
        <mxCell id="zt8t_xgX9AJJjSLp34bd-4" value="" style="whiteSpace=wrap;html=1;aspect=fixed;fontStyle=1" vertex="1" parent="zt8t_xgX9AJJjSLp34bd-1">
          <mxGeometry x="370" y="320" width="80" height="80" as="geometry" />
        </mxCell>
        <mxCell id="zt8t_xgX9AJJjSLp34bd-5" value="6" style="text;html=1;align=center;verticalAlign=middle;whiteSpace=wrap;rounded=0;fontSize=16;fontStyle=1" vertex="1" parent="zt8t_xgX9AJJjSLp34bd-1">
          <mxGeometry x="380" y="345" width="60" height="30" as="geometry" />
        </mxCell>
        <mxCell id="zt8t_xgX9AJJjSLp34bd-6" value="" style="endArrow=none;html=1;rounded=0;fontStyle=1" edge="1" parent="zt8t_xgX9AJJjSLp34bd-1">
          <mxGeometry width="50" height="50" relative="1" as="geometry">
            <mxPoint x="370" y="440" as="sourcePoint" />
            <mxPoint x="450" y="440" as="targetPoint" />
          </mxGeometry>
        </mxCell>
        <mxCell id="zt8t_xgX9AJJjSLp34bd-7" value="" style="endArrow=none;html=1;rounded=0;fontStyle=1" edge="1" parent="zt8t_xgX9AJJjSLp34bd-1">
          <mxGeometry width="50" height="50" relative="1" as="geometry">
            <mxPoint x="380" y="450" as="sourcePoint" />
            <mxPoint x="440" y="450" as="targetPoint" />
            <Array as="points">
              <mxPoint x="420" y="450" />
            </Array>
          </mxGeometry>
        </mxCell>
        <mxCell id="zt8t_xgX9AJJjSLp34bd-8" value="" style="endArrow=none;html=1;rounded=0;fontStyle=1" edge="1" parent="zt8t_xgX9AJJjSLp34bd-1">
          <mxGeometry width="50" height="50" relative="1" as="geometry">
            <mxPoint x="390" y="460" as="sourcePoint" />
            <mxPoint x="430" y="460" as="targetPoint" />
          </mxGeometry>
        </mxCell>
        <mxCell id="zt8t_xgX9AJJjSLp34bd-9" value="" style="endArrow=classic;html=1;rounded=0;exitX=0.5;exitY=1;exitDx=0;exitDy=0;fontStyle=1" edge="1" parent="zt8t_xgX9AJJjSLp34bd-1" source="zt8t_xgX9AJJjSLp34bd-4">
          <mxGeometry width="50" height="50" relative="1" as="geometry">
            <mxPoint x="566" y="350" as="sourcePoint" />
            <mxPoint x="410" y="440" as="targetPoint" />
          </mxGeometry>
        </mxCell>
        <mxCell id="zt8t_xgX9AJJjSLp34bd-10" value="" style="whiteSpace=wrap;html=1;aspect=fixed;fontStyle=1" vertex="1" parent="zt8t_xgX9AJJjSLp34bd-1">
          <mxGeometry x="540" y="210" width="80" height="80" as="geometry" />
        </mxCell>
        <mxCell id="zt8t_xgX9AJJjSLp34bd-11" value="8" style="text;html=1;align=center;verticalAlign=middle;whiteSpace=wrap;rounded=0;fontSize=16;fontStyle=1" vertex="1" parent="zt8t_xgX9AJJjSLp34bd-1">
          <mxGeometry x="550" y="235" width="60" height="30" as="geometry" />
        </mxCell>
        <mxCell id="zt8t_xgX9AJJjSLp34bd-12" value="" style="endArrow=none;html=1;rounded=0;fontStyle=1" edge="1" parent="zt8t_xgX9AJJjSLp34bd-1">
          <mxGeometry width="50" height="50" relative="1" as="geometry">
            <mxPoint x="540" y="330" as="sourcePoint" />
            <mxPoint x="620" y="330" as="targetPoint" />
          </mxGeometry>
        </mxCell>
        <mxCell id="zt8t_xgX9AJJjSLp34bd-13" value="" style="endArrow=none;html=1;rounded=0;fontStyle=1" edge="1" parent="zt8t_xgX9AJJjSLp34bd-1">
          <mxGeometry width="50" height="50" relative="1" as="geometry">
            <mxPoint x="550" y="340" as="sourcePoint" />
            <mxPoint x="610" y="340" as="targetPoint" />
            <Array as="points">
              <mxPoint x="590" y="340" />
            </Array>
          </mxGeometry>
        </mxCell>
        <mxCell id="zt8t_xgX9AJJjSLp34bd-14" value="" style="endArrow=none;html=1;rounded=0;fontStyle=1" edge="1" parent="zt8t_xgX9AJJjSLp34bd-1">
          <mxGeometry width="50" height="50" relative="1" as="geometry">
            <mxPoint x="560" y="350" as="sourcePoint" />
            <mxPoint x="600" y="350" as="targetPoint" />
          </mxGeometry>
        </mxCell>
        <mxCell id="zt8t_xgX9AJJjSLp34bd-15" value="" style="endArrow=classic;html=1;rounded=0;exitX=0.5;exitY=1;exitDx=0;exitDy=0;fontStyle=1" edge="1" parent="zt8t_xgX9AJJjSLp34bd-1" source="zt8t_xgX9AJJjSLp34bd-10">
          <mxGeometry width="50" height="50" relative="1" as="geometry">
            <mxPoint x="556" y="350" as="sourcePoint" />
            <mxPoint x="460" y="350" as="targetPoint" />
          </mxGeometry>
        </mxCell>
      </root>
    </mxGraphModel>
  </diagram>
  <diagram name="Etapa 7.3" id="Gg0KLbysoSsMrAvXLcGn">
    <mxGraphModel dx="1434" dy="780" grid="1" gridSize="10" guides="1" tooltips="1" connect="1" arrows="1" fold="1" page="1" pageScale="1" pageWidth="827" pageHeight="1169" math="0" shadow="0">
      <root>
        <mxCell id="M5Hz3wkn3YimEoUQTmAL-0" />
        <mxCell id="M5Hz3wkn3YimEoUQTmAL-1" parent="M5Hz3wkn3YimEoUQTmAL-0" />
        <mxCell id="M5Hz3wkn3YimEoUQTmAL-2" value="" style="endArrow=classic;html=1;rounded=0;" edge="1" parent="M5Hz3wkn3YimEoUQTmAL-1">
          <mxGeometry width="50" height="50" relative="1" as="geometry">
            <mxPoint x="410" y="140" as="sourcePoint" />
            <mxPoint x="410" y="200" as="targetPoint" />
          </mxGeometry>
        </mxCell>
        <mxCell id="M5Hz3wkn3YimEoUQTmAL-3" value="TOPO" style="text;html=1;align=center;verticalAlign=middle;whiteSpace=wrap;rounded=0;fontSize=16;" vertex="1" parent="M5Hz3wkn3YimEoUQTmAL-1">
          <mxGeometry x="380" y="110" width="60" height="30" as="geometry" />
        </mxCell>
        <mxCell id="M5Hz3wkn3YimEoUQTmAL-4" value="" style="whiteSpace=wrap;html=1;aspect=fixed;fontStyle=1" vertex="1" parent="M5Hz3wkn3YimEoUQTmAL-1">
          <mxGeometry x="370" y="320" width="80" height="80" as="geometry" />
        </mxCell>
        <mxCell id="M5Hz3wkn3YimEoUQTmAL-5" value="6" style="text;html=1;align=center;verticalAlign=middle;whiteSpace=wrap;rounded=0;fontSize=16;fontStyle=1" vertex="1" parent="M5Hz3wkn3YimEoUQTmAL-1">
          <mxGeometry x="380" y="345" width="60" height="30" as="geometry" />
        </mxCell>
        <mxCell id="M5Hz3wkn3YimEoUQTmAL-6" value="" style="endArrow=none;html=1;rounded=0;fontStyle=1" edge="1" parent="M5Hz3wkn3YimEoUQTmAL-1">
          <mxGeometry width="50" height="50" relative="1" as="geometry">
            <mxPoint x="370" y="440" as="sourcePoint" />
            <mxPoint x="450" y="440" as="targetPoint" />
          </mxGeometry>
        </mxCell>
        <mxCell id="M5Hz3wkn3YimEoUQTmAL-7" value="" style="endArrow=none;html=1;rounded=0;fontStyle=1" edge="1" parent="M5Hz3wkn3YimEoUQTmAL-1">
          <mxGeometry width="50" height="50" relative="1" as="geometry">
            <mxPoint x="380" y="450" as="sourcePoint" />
            <mxPoint x="440" y="450" as="targetPoint" />
            <Array as="points">
              <mxPoint x="420" y="450" />
            </Array>
          </mxGeometry>
        </mxCell>
        <mxCell id="M5Hz3wkn3YimEoUQTmAL-8" value="" style="endArrow=none;html=1;rounded=0;fontStyle=1" edge="1" parent="M5Hz3wkn3YimEoUQTmAL-1">
          <mxGeometry width="50" height="50" relative="1" as="geometry">
            <mxPoint x="390" y="460" as="sourcePoint" />
            <mxPoint x="430" y="460" as="targetPoint" />
          </mxGeometry>
        </mxCell>
        <mxCell id="M5Hz3wkn3YimEoUQTmAL-9" value="" style="endArrow=classic;html=1;rounded=0;exitX=0.5;exitY=1;exitDx=0;exitDy=0;fontStyle=1" edge="1" parent="M5Hz3wkn3YimEoUQTmAL-1" source="M5Hz3wkn3YimEoUQTmAL-4">
          <mxGeometry width="50" height="50" relative="1" as="geometry">
            <mxPoint x="566" y="350" as="sourcePoint" />
            <mxPoint x="410" y="440" as="targetPoint" />
          </mxGeometry>
        </mxCell>
        <mxCell id="M5Hz3wkn3YimEoUQTmAL-10" value="" style="whiteSpace=wrap;html=1;aspect=fixed;fontStyle=1" vertex="1" parent="M5Hz3wkn3YimEoUQTmAL-1">
          <mxGeometry x="370" y="200" width="80" height="80" as="geometry" />
        </mxCell>
        <mxCell id="M5Hz3wkn3YimEoUQTmAL-11" value="8" style="text;html=1;align=center;verticalAlign=middle;whiteSpace=wrap;rounded=0;fontSize=16;fontStyle=1" vertex="1" parent="M5Hz3wkn3YimEoUQTmAL-1">
          <mxGeometry x="380" y="225" width="60" height="30" as="geometry" />
        </mxCell>
        <mxCell id="M5Hz3wkn3YimEoUQTmAL-12" value="" style="endArrow=classic;html=1;rounded=0;exitX=0.5;exitY=1;exitDx=0;exitDy=0;fontStyle=1;entryX=0.5;entryY=0;entryDx=0;entryDy=0;" edge="1" parent="M5Hz3wkn3YimEoUQTmAL-1" source="M5Hz3wkn3YimEoUQTmAL-10" target="M5Hz3wkn3YimEoUQTmAL-4">
          <mxGeometry width="50" height="50" relative="1" as="geometry">
            <mxPoint x="556" y="350" as="sourcePoint" />
            <mxPoint x="460" y="350" as="targetPoint" />
          </mxGeometry>
        </mxCell>
      </root>
    </mxGraphModel>
  </diagram>
  <diagram name="Etapa 8.1" id="cHSU51PEvWA8nLY2U4OJ">
    <mxGraphModel dx="1434" dy="780" grid="1" gridSize="10" guides="1" tooltips="1" connect="1" arrows="1" fold="1" page="1" pageScale="1" pageWidth="827" pageHeight="1169" math="0" shadow="0">
      <root>
        <mxCell id="29vhLKBaT5jI2mV5qfpN-0" />
        <mxCell id="29vhLKBaT5jI2mV5qfpN-1" parent="29vhLKBaT5jI2mV5qfpN-0" />
        <mxCell id="29vhLKBaT5jI2mV5qfpN-2" value="" style="endArrow=classic;html=1;rounded=0;" edge="1" parent="29vhLKBaT5jI2mV5qfpN-1">
          <mxGeometry width="50" height="50" relative="1" as="geometry">
            <mxPoint x="410" y="140" as="sourcePoint" />
            <mxPoint x="410" y="200" as="targetPoint" />
          </mxGeometry>
        </mxCell>
        <mxCell id="29vhLKBaT5jI2mV5qfpN-3" value="TOPO" style="text;html=1;align=center;verticalAlign=middle;whiteSpace=wrap;rounded=0;fontSize=16;" vertex="1" parent="29vhLKBaT5jI2mV5qfpN-1">
          <mxGeometry x="380" y="110" width="60" height="30" as="geometry" />
        </mxCell>
        <mxCell id="29vhLKBaT5jI2mV5qfpN-4" value="" style="whiteSpace=wrap;html=1;aspect=fixed;fontStyle=1" vertex="1" parent="29vhLKBaT5jI2mV5qfpN-1">
          <mxGeometry x="370" y="320" width="80" height="80" as="geometry" />
        </mxCell>
        <mxCell id="29vhLKBaT5jI2mV5qfpN-5" value="6" style="text;html=1;align=center;verticalAlign=middle;whiteSpace=wrap;rounded=0;fontSize=16;fontStyle=1" vertex="1" parent="29vhLKBaT5jI2mV5qfpN-1">
          <mxGeometry x="380" y="345" width="60" height="30" as="geometry" />
        </mxCell>
        <mxCell id="29vhLKBaT5jI2mV5qfpN-6" value="" style="endArrow=none;html=1;rounded=0;fontStyle=1" edge="1" parent="29vhLKBaT5jI2mV5qfpN-1">
          <mxGeometry width="50" height="50" relative="1" as="geometry">
            <mxPoint x="370" y="440" as="sourcePoint" />
            <mxPoint x="450" y="440" as="targetPoint" />
          </mxGeometry>
        </mxCell>
        <mxCell id="29vhLKBaT5jI2mV5qfpN-7" value="" style="endArrow=none;html=1;rounded=0;fontStyle=1" edge="1" parent="29vhLKBaT5jI2mV5qfpN-1">
          <mxGeometry width="50" height="50" relative="1" as="geometry">
            <mxPoint x="380" y="450" as="sourcePoint" />
            <mxPoint x="440" y="450" as="targetPoint" />
            <Array as="points">
              <mxPoint x="420" y="450" />
            </Array>
          </mxGeometry>
        </mxCell>
        <mxCell id="29vhLKBaT5jI2mV5qfpN-8" value="" style="endArrow=none;html=1;rounded=0;fontStyle=1" edge="1" parent="29vhLKBaT5jI2mV5qfpN-1">
          <mxGeometry width="50" height="50" relative="1" as="geometry">
            <mxPoint x="390" y="460" as="sourcePoint" />
            <mxPoint x="430" y="460" as="targetPoint" />
          </mxGeometry>
        </mxCell>
        <mxCell id="29vhLKBaT5jI2mV5qfpN-9" value="" style="endArrow=classic;html=1;rounded=0;exitX=0.5;exitY=1;exitDx=0;exitDy=0;fontStyle=1" edge="1" parent="29vhLKBaT5jI2mV5qfpN-1" source="29vhLKBaT5jI2mV5qfpN-4">
          <mxGeometry width="50" height="50" relative="1" as="geometry">
            <mxPoint x="566" y="350" as="sourcePoint" />
            <mxPoint x="410" y="440" as="targetPoint" />
          </mxGeometry>
        </mxCell>
        <mxCell id="29vhLKBaT5jI2mV5qfpN-10" value="" style="whiteSpace=wrap;html=1;aspect=fixed;fontStyle=1" vertex="1" parent="29vhLKBaT5jI2mV5qfpN-1">
          <mxGeometry x="370" y="200" width="80" height="80" as="geometry" />
        </mxCell>
        <mxCell id="29vhLKBaT5jI2mV5qfpN-11" value="8" style="text;html=1;align=center;verticalAlign=middle;whiteSpace=wrap;rounded=0;fontSize=16;fontStyle=1" vertex="1" parent="29vhLKBaT5jI2mV5qfpN-1">
          <mxGeometry x="380" y="225" width="60" height="30" as="geometry" />
        </mxCell>
        <mxCell id="29vhLKBaT5jI2mV5qfpN-12" value="" style="endArrow=classic;html=1;rounded=0;exitX=0.5;exitY=1;exitDx=0;exitDy=0;fontStyle=1;entryX=0.5;entryY=0;entryDx=0;entryDy=0;" edge="1" parent="29vhLKBaT5jI2mV5qfpN-1" source="29vhLKBaT5jI2mV5qfpN-10" target="29vhLKBaT5jI2mV5qfpN-4">
          <mxGeometry width="50" height="50" relative="1" as="geometry">
            <mxPoint x="556" y="350" as="sourcePoint" />
            <mxPoint x="460" y="350" as="targetPoint" />
          </mxGeometry>
        </mxCell>
        <mxCell id="2HEA70CN8cSEklRBbN-L-0" value="" style="whiteSpace=wrap;html=1;aspect=fixed;fontStyle=1" vertex="1" parent="29vhLKBaT5jI2mV5qfpN-1">
          <mxGeometry x="560" y="120" width="80" height="80" as="geometry" />
        </mxCell>
        <mxCell id="2HEA70CN8cSEklRBbN-L-1" value="3" style="text;html=1;align=center;verticalAlign=middle;whiteSpace=wrap;rounded=0;fontSize=16;fontStyle=1" vertex="1" parent="29vhLKBaT5jI2mV5qfpN-1">
          <mxGeometry x="570" y="145" width="60" height="30" as="geometry" />
        </mxCell>
        <mxCell id="2HEA70CN8cSEklRBbN-L-2" value="" style="endArrow=none;html=1;rounded=0;fontStyle=1" edge="1" parent="29vhLKBaT5jI2mV5qfpN-1">
          <mxGeometry width="50" height="50" relative="1" as="geometry">
            <mxPoint x="560" y="240" as="sourcePoint" />
            <mxPoint x="640" y="240" as="targetPoint" />
          </mxGeometry>
        </mxCell>
        <mxCell id="2HEA70CN8cSEklRBbN-L-3" value="" style="endArrow=none;html=1;rounded=0;fontStyle=1" edge="1" parent="29vhLKBaT5jI2mV5qfpN-1">
          <mxGeometry width="50" height="50" relative="1" as="geometry">
            <mxPoint x="570" y="250" as="sourcePoint" />
            <mxPoint x="630" y="250" as="targetPoint" />
            <Array as="points">
              <mxPoint x="610" y="250" />
            </Array>
          </mxGeometry>
        </mxCell>
        <mxCell id="2HEA70CN8cSEklRBbN-L-4" value="" style="endArrow=none;html=1;rounded=0;fontStyle=1" edge="1" parent="29vhLKBaT5jI2mV5qfpN-1">
          <mxGeometry width="50" height="50" relative="1" as="geometry">
            <mxPoint x="580" y="260" as="sourcePoint" />
            <mxPoint x="620" y="260" as="targetPoint" />
          </mxGeometry>
        </mxCell>
        <mxCell id="2HEA70CN8cSEklRBbN-L-5" value="" style="endArrow=classic;html=1;rounded=0;exitX=0.5;exitY=1;exitDx=0;exitDy=0;fontStyle=1" edge="1" parent="29vhLKBaT5jI2mV5qfpN-1" source="2HEA70CN8cSEklRBbN-L-0">
          <mxGeometry width="50" height="50" relative="1" as="geometry">
            <mxPoint x="576" y="260" as="sourcePoint" />
            <mxPoint x="600" y="230" as="targetPoint" />
          </mxGeometry>
        </mxCell>
      </root>
    </mxGraphModel>
  </diagram>
  <diagram name="Etapa 8.2" id="OQ9FnJFjTC0xhpWo-B0n">
    <mxGraphModel dx="1434" dy="780" grid="1" gridSize="10" guides="1" tooltips="1" connect="1" arrows="1" fold="1" page="1" pageScale="1" pageWidth="827" pageHeight="1169" math="0" shadow="0">
      <root>
        <mxCell id="Rcs3-EQjDcqqL_MjF5Q5-0" />
        <mxCell id="Rcs3-EQjDcqqL_MjF5Q5-1" parent="Rcs3-EQjDcqqL_MjF5Q5-0" />
        <mxCell id="Rcs3-EQjDcqqL_MjF5Q5-2" value="" style="endArrow=classic;html=1;rounded=0;" edge="1" parent="Rcs3-EQjDcqqL_MjF5Q5-1">
          <mxGeometry width="50" height="50" relative="1" as="geometry">
            <mxPoint x="410" y="140" as="sourcePoint" />
            <mxPoint x="410" y="200" as="targetPoint" />
          </mxGeometry>
        </mxCell>
        <mxCell id="Rcs3-EQjDcqqL_MjF5Q5-3" value="TOPO" style="text;html=1;align=center;verticalAlign=middle;whiteSpace=wrap;rounded=0;fontSize=16;" vertex="1" parent="Rcs3-EQjDcqqL_MjF5Q5-1">
          <mxGeometry x="380" y="110" width="60" height="30" as="geometry" />
        </mxCell>
        <mxCell id="Rcs3-EQjDcqqL_MjF5Q5-4" value="" style="whiteSpace=wrap;html=1;aspect=fixed;fontStyle=1" vertex="1" parent="Rcs3-EQjDcqqL_MjF5Q5-1">
          <mxGeometry x="370" y="320" width="80" height="80" as="geometry" />
        </mxCell>
        <mxCell id="Rcs3-EQjDcqqL_MjF5Q5-5" value="6" style="text;html=1;align=center;verticalAlign=middle;whiteSpace=wrap;rounded=0;fontSize=16;fontStyle=1" vertex="1" parent="Rcs3-EQjDcqqL_MjF5Q5-1">
          <mxGeometry x="380" y="345" width="60" height="30" as="geometry" />
        </mxCell>
        <mxCell id="Rcs3-EQjDcqqL_MjF5Q5-6" value="" style="endArrow=none;html=1;rounded=0;fontStyle=1" edge="1" parent="Rcs3-EQjDcqqL_MjF5Q5-1">
          <mxGeometry width="50" height="50" relative="1" as="geometry">
            <mxPoint x="370" y="440" as="sourcePoint" />
            <mxPoint x="450" y="440" as="targetPoint" />
          </mxGeometry>
        </mxCell>
        <mxCell id="Rcs3-EQjDcqqL_MjF5Q5-7" value="" style="endArrow=none;html=1;rounded=0;fontStyle=1" edge="1" parent="Rcs3-EQjDcqqL_MjF5Q5-1">
          <mxGeometry width="50" height="50" relative="1" as="geometry">
            <mxPoint x="380" y="450" as="sourcePoint" />
            <mxPoint x="440" y="450" as="targetPoint" />
            <Array as="points">
              <mxPoint x="420" y="450" />
            </Array>
          </mxGeometry>
        </mxCell>
        <mxCell id="Rcs3-EQjDcqqL_MjF5Q5-8" value="" style="endArrow=none;html=1;rounded=0;fontStyle=1" edge="1" parent="Rcs3-EQjDcqqL_MjF5Q5-1">
          <mxGeometry width="50" height="50" relative="1" as="geometry">
            <mxPoint x="390" y="460" as="sourcePoint" />
            <mxPoint x="430" y="460" as="targetPoint" />
          </mxGeometry>
        </mxCell>
        <mxCell id="Rcs3-EQjDcqqL_MjF5Q5-9" value="" style="endArrow=classic;html=1;rounded=0;exitX=0.5;exitY=1;exitDx=0;exitDy=0;fontStyle=1" edge="1" parent="Rcs3-EQjDcqqL_MjF5Q5-1" source="Rcs3-EQjDcqqL_MjF5Q5-4">
          <mxGeometry width="50" height="50" relative="1" as="geometry">
            <mxPoint x="566" y="350" as="sourcePoint" />
            <mxPoint x="410" y="440" as="targetPoint" />
          </mxGeometry>
        </mxCell>
        <mxCell id="Rcs3-EQjDcqqL_MjF5Q5-10" value="" style="whiteSpace=wrap;html=1;aspect=fixed;fontStyle=1" vertex="1" parent="Rcs3-EQjDcqqL_MjF5Q5-1">
          <mxGeometry x="370" y="200" width="80" height="80" as="geometry" />
        </mxCell>
        <mxCell id="Rcs3-EQjDcqqL_MjF5Q5-11" value="8" style="text;html=1;align=center;verticalAlign=middle;whiteSpace=wrap;rounded=0;fontSize=16;fontStyle=1" vertex="1" parent="Rcs3-EQjDcqqL_MjF5Q5-1">
          <mxGeometry x="380" y="225" width="60" height="30" as="geometry" />
        </mxCell>
        <mxCell id="Rcs3-EQjDcqqL_MjF5Q5-12" value="" style="endArrow=classic;html=1;rounded=0;exitX=0.5;exitY=1;exitDx=0;exitDy=0;fontStyle=1;entryX=0.5;entryY=0;entryDx=0;entryDy=0;" edge="1" parent="Rcs3-EQjDcqqL_MjF5Q5-1" source="Rcs3-EQjDcqqL_MjF5Q5-10" target="Rcs3-EQjDcqqL_MjF5Q5-4">
          <mxGeometry width="50" height="50" relative="1" as="geometry">
            <mxPoint x="556" y="350" as="sourcePoint" />
            <mxPoint x="460" y="350" as="targetPoint" />
          </mxGeometry>
        </mxCell>
        <mxCell id="Rcs3-EQjDcqqL_MjF5Q5-13" value="" style="whiteSpace=wrap;html=1;aspect=fixed;fontStyle=1" vertex="1" parent="Rcs3-EQjDcqqL_MjF5Q5-1">
          <mxGeometry x="560" y="120" width="80" height="80" as="geometry" />
        </mxCell>
        <mxCell id="Rcs3-EQjDcqqL_MjF5Q5-14" value="3" style="text;html=1;align=center;verticalAlign=middle;whiteSpace=wrap;rounded=0;fontSize=16;fontStyle=1" vertex="1" parent="Rcs3-EQjDcqqL_MjF5Q5-1">
          <mxGeometry x="570" y="145" width="60" height="30" as="geometry" />
        </mxCell>
        <mxCell id="Rcs3-EQjDcqqL_MjF5Q5-15" value="" style="endArrow=none;html=1;rounded=0;fontStyle=1" edge="1" parent="Rcs3-EQjDcqqL_MjF5Q5-1">
          <mxGeometry width="50" height="50" relative="1" as="geometry">
            <mxPoint x="560" y="240" as="sourcePoint" />
            <mxPoint x="640" y="240" as="targetPoint" />
          </mxGeometry>
        </mxCell>
        <mxCell id="Rcs3-EQjDcqqL_MjF5Q5-16" value="" style="endArrow=none;html=1;rounded=0;fontStyle=1" edge="1" parent="Rcs3-EQjDcqqL_MjF5Q5-1">
          <mxGeometry width="50" height="50" relative="1" as="geometry">
            <mxPoint x="570" y="250" as="sourcePoint" />
            <mxPoint x="630" y="250" as="targetPoint" />
            <Array as="points">
              <mxPoint x="610" y="250" />
            </Array>
          </mxGeometry>
        </mxCell>
        <mxCell id="Rcs3-EQjDcqqL_MjF5Q5-17" value="" style="endArrow=none;html=1;rounded=0;fontStyle=1" edge="1" parent="Rcs3-EQjDcqqL_MjF5Q5-1">
          <mxGeometry width="50" height="50" relative="1" as="geometry">
            <mxPoint x="580" y="260" as="sourcePoint" />
            <mxPoint x="620" y="260" as="targetPoint" />
          </mxGeometry>
        </mxCell>
        <mxCell id="Rcs3-EQjDcqqL_MjF5Q5-18" value="" style="endArrow=classic;html=1;rounded=0;exitX=0.5;exitY=1;exitDx=0;exitDy=0;fontStyle=1" edge="1" parent="Rcs3-EQjDcqqL_MjF5Q5-1" source="Rcs3-EQjDcqqL_MjF5Q5-13">
          <mxGeometry width="50" height="50" relative="1" as="geometry">
            <mxPoint x="576" y="260" as="sourcePoint" />
            <mxPoint x="460" y="250" as="targetPoint" />
          </mxGeometry>
        </mxCell>
      </root>
    </mxGraphModel>
  </diagram>
  <diagram name="Etapa 8.3" id="xi1EHr0MRAL0xpAWMyj8">
    <mxGraphModel dx="1434" dy="780" grid="1" gridSize="10" guides="1" tooltips="1" connect="1" arrows="1" fold="1" page="1" pageScale="1" pageWidth="827" pageHeight="1169" math="0" shadow="0">
      <root>
        <mxCell id="49kN4YL2BwO28qpLMuei-0" />
        <mxCell id="49kN4YL2BwO28qpLMuei-1" parent="49kN4YL2BwO28qpLMuei-0" />
        <mxCell id="49kN4YL2BwO28qpLMuei-2" value="" style="endArrow=classic;html=1;rounded=0;" edge="1" parent="49kN4YL2BwO28qpLMuei-1">
          <mxGeometry width="50" height="50" relative="1" as="geometry">
            <mxPoint x="410" y="140" as="sourcePoint" />
            <mxPoint x="410" y="200" as="targetPoint" />
          </mxGeometry>
        </mxCell>
        <mxCell id="49kN4YL2BwO28qpLMuei-3" value="TOPO" style="text;html=1;align=center;verticalAlign=middle;whiteSpace=wrap;rounded=0;fontSize=16;" vertex="1" parent="49kN4YL2BwO28qpLMuei-1">
          <mxGeometry x="380" y="110" width="60" height="30" as="geometry" />
        </mxCell>
        <mxCell id="49kN4YL2BwO28qpLMuei-4" value="" style="whiteSpace=wrap;html=1;aspect=fixed;fontStyle=1" vertex="1" parent="49kN4YL2BwO28qpLMuei-1">
          <mxGeometry x="370" y="444" width="80" height="80" as="geometry" />
        </mxCell>
        <mxCell id="49kN4YL2BwO28qpLMuei-5" value="6" style="text;html=1;align=center;verticalAlign=middle;whiteSpace=wrap;rounded=0;fontSize=16;fontStyle=1" vertex="1" parent="49kN4YL2BwO28qpLMuei-1">
          <mxGeometry x="380" y="469" width="60" height="30" as="geometry" />
        </mxCell>
        <mxCell id="49kN4YL2BwO28qpLMuei-6" value="" style="endArrow=none;html=1;rounded=0;fontStyle=1" edge="1" parent="49kN4YL2BwO28qpLMuei-1">
          <mxGeometry width="50" height="50" relative="1" as="geometry">
            <mxPoint x="370" y="564" as="sourcePoint" />
            <mxPoint x="450" y="564" as="targetPoint" />
          </mxGeometry>
        </mxCell>
        <mxCell id="49kN4YL2BwO28qpLMuei-7" value="" style="endArrow=none;html=1;rounded=0;fontStyle=1" edge="1" parent="49kN4YL2BwO28qpLMuei-1">
          <mxGeometry width="50" height="50" relative="1" as="geometry">
            <mxPoint x="380" y="574" as="sourcePoint" />
            <mxPoint x="440" y="574" as="targetPoint" />
            <Array as="points">
              <mxPoint x="420" y="574" />
            </Array>
          </mxGeometry>
        </mxCell>
        <mxCell id="49kN4YL2BwO28qpLMuei-8" value="" style="endArrow=none;html=1;rounded=0;fontStyle=1" edge="1" parent="49kN4YL2BwO28qpLMuei-1">
          <mxGeometry width="50" height="50" relative="1" as="geometry">
            <mxPoint x="390" y="584" as="sourcePoint" />
            <mxPoint x="430" y="584" as="targetPoint" />
          </mxGeometry>
        </mxCell>
        <mxCell id="49kN4YL2BwO28qpLMuei-9" value="" style="endArrow=classic;html=1;rounded=0;exitX=0.5;exitY=1;exitDx=0;exitDy=0;fontStyle=1" edge="1" parent="49kN4YL2BwO28qpLMuei-1" source="49kN4YL2BwO28qpLMuei-4">
          <mxGeometry width="50" height="50" relative="1" as="geometry">
            <mxPoint x="566" y="474" as="sourcePoint" />
            <mxPoint x="410" y="564" as="targetPoint" />
          </mxGeometry>
        </mxCell>
        <mxCell id="49kN4YL2BwO28qpLMuei-10" value="" style="whiteSpace=wrap;html=1;aspect=fixed;fontStyle=1" vertex="1" parent="49kN4YL2BwO28qpLMuei-1">
          <mxGeometry x="370" y="324" width="80" height="80" as="geometry" />
        </mxCell>
        <mxCell id="49kN4YL2BwO28qpLMuei-11" value="8" style="text;html=1;align=center;verticalAlign=middle;whiteSpace=wrap;rounded=0;fontSize=16;fontStyle=1" vertex="1" parent="49kN4YL2BwO28qpLMuei-1">
          <mxGeometry x="380" y="349" width="60" height="30" as="geometry" />
        </mxCell>
        <mxCell id="49kN4YL2BwO28qpLMuei-12" value="" style="endArrow=classic;html=1;rounded=0;exitX=0.5;exitY=1;exitDx=0;exitDy=0;fontStyle=1;entryX=0.5;entryY=0;entryDx=0;entryDy=0;" edge="1" parent="49kN4YL2BwO28qpLMuei-1" source="49kN4YL2BwO28qpLMuei-10" target="49kN4YL2BwO28qpLMuei-4">
          <mxGeometry width="50" height="50" relative="1" as="geometry">
            <mxPoint x="556" y="474" as="sourcePoint" />
            <mxPoint x="460" y="474" as="targetPoint" />
          </mxGeometry>
        </mxCell>
        <mxCell id="49kN4YL2BwO28qpLMuei-13" value="" style="whiteSpace=wrap;html=1;aspect=fixed;fontStyle=1" vertex="1" parent="49kN4YL2BwO28qpLMuei-1">
          <mxGeometry x="370" y="200" width="80" height="80" as="geometry" />
        </mxCell>
        <mxCell id="49kN4YL2BwO28qpLMuei-14" value="3" style="text;html=1;align=center;verticalAlign=middle;whiteSpace=wrap;rounded=0;fontSize=16;fontStyle=1" vertex="1" parent="49kN4YL2BwO28qpLMuei-1">
          <mxGeometry x="380" y="225" width="60" height="30" as="geometry" />
        </mxCell>
        <mxCell id="49kN4YL2BwO28qpLMuei-18" value="" style="endArrow=classic;html=1;rounded=0;exitX=0.5;exitY=1;exitDx=0;exitDy=0;fontStyle=1" edge="1" parent="49kN4YL2BwO28qpLMuei-1" source="49kN4YL2BwO28qpLMuei-13">
          <mxGeometry width="50" height="50" relative="1" as="geometry">
            <mxPoint x="576" y="260" as="sourcePoint" />
            <mxPoint x="410" y="320" as="targetPoint" />
          </mxGeometry>
        </mxCell>
      </root>
    </mxGraphModel>
  </diagram>
  <diagram name="Etapa 9.1" id="129j_ly-QA8f_ezc-Sl_">
    <mxGraphModel dx="1434" dy="780" grid="1" gridSize="10" guides="1" tooltips="1" connect="1" arrows="1" fold="1" page="1" pageScale="1" pageWidth="827" pageHeight="1169" math="0" shadow="0">
      <root>
        <mxCell id="nzSl-Lh7gABztXT2uunV-0" />
        <mxCell id="nzSl-Lh7gABztXT2uunV-1" parent="nzSl-Lh7gABztXT2uunV-0" />
        <mxCell id="nzSl-Lh7gABztXT2uunV-2" value="" style="endArrow=classic;html=1;rounded=0;" edge="1" parent="nzSl-Lh7gABztXT2uunV-1">
          <mxGeometry width="50" height="50" relative="1" as="geometry">
            <mxPoint x="410" y="140" as="sourcePoint" />
            <mxPoint x="410" y="200" as="targetPoint" />
          </mxGeometry>
        </mxCell>
        <mxCell id="nzSl-Lh7gABztXT2uunV-3" value="TOPO" style="text;html=1;align=center;verticalAlign=middle;whiteSpace=wrap;rounded=0;fontSize=16;" vertex="1" parent="nzSl-Lh7gABztXT2uunV-1">
          <mxGeometry x="380" y="110" width="60" height="30" as="geometry" />
        </mxCell>
        <mxCell id="nzSl-Lh7gABztXT2uunV-4" value="" style="whiteSpace=wrap;html=1;aspect=fixed;fontStyle=1" vertex="1" parent="nzSl-Lh7gABztXT2uunV-1">
          <mxGeometry x="370" y="444" width="80" height="80" as="geometry" />
        </mxCell>
        <mxCell id="nzSl-Lh7gABztXT2uunV-5" value="6" style="text;html=1;align=center;verticalAlign=middle;whiteSpace=wrap;rounded=0;fontSize=16;fontStyle=1" vertex="1" parent="nzSl-Lh7gABztXT2uunV-1">
          <mxGeometry x="380" y="469" width="60" height="30" as="geometry" />
        </mxCell>
        <mxCell id="nzSl-Lh7gABztXT2uunV-6" value="" style="endArrow=none;html=1;rounded=0;fontStyle=1" edge="1" parent="nzSl-Lh7gABztXT2uunV-1">
          <mxGeometry width="50" height="50" relative="1" as="geometry">
            <mxPoint x="370" y="564" as="sourcePoint" />
            <mxPoint x="450" y="564" as="targetPoint" />
          </mxGeometry>
        </mxCell>
        <mxCell id="nzSl-Lh7gABztXT2uunV-7" value="" style="endArrow=none;html=1;rounded=0;fontStyle=1" edge="1" parent="nzSl-Lh7gABztXT2uunV-1">
          <mxGeometry width="50" height="50" relative="1" as="geometry">
            <mxPoint x="380" y="574" as="sourcePoint" />
            <mxPoint x="440" y="574" as="targetPoint" />
            <Array as="points">
              <mxPoint x="420" y="574" />
            </Array>
          </mxGeometry>
        </mxCell>
        <mxCell id="nzSl-Lh7gABztXT2uunV-8" value="" style="endArrow=none;html=1;rounded=0;fontStyle=1" edge="1" parent="nzSl-Lh7gABztXT2uunV-1">
          <mxGeometry width="50" height="50" relative="1" as="geometry">
            <mxPoint x="390" y="584" as="sourcePoint" />
            <mxPoint x="430" y="584" as="targetPoint" />
          </mxGeometry>
        </mxCell>
        <mxCell id="nzSl-Lh7gABztXT2uunV-9" value="" style="endArrow=classic;html=1;rounded=0;exitX=0.5;exitY=1;exitDx=0;exitDy=0;fontStyle=1" edge="1" parent="nzSl-Lh7gABztXT2uunV-1" source="nzSl-Lh7gABztXT2uunV-4">
          <mxGeometry width="50" height="50" relative="1" as="geometry">
            <mxPoint x="566" y="474" as="sourcePoint" />
            <mxPoint x="410" y="564" as="targetPoint" />
          </mxGeometry>
        </mxCell>
        <mxCell id="nzSl-Lh7gABztXT2uunV-10" value="" style="whiteSpace=wrap;html=1;aspect=fixed;fontStyle=1" vertex="1" parent="nzSl-Lh7gABztXT2uunV-1">
          <mxGeometry x="370" y="324" width="80" height="80" as="geometry" />
        </mxCell>
        <mxCell id="nzSl-Lh7gABztXT2uunV-11" value="8" style="text;html=1;align=center;verticalAlign=middle;whiteSpace=wrap;rounded=0;fontSize=16;fontStyle=1" vertex="1" parent="nzSl-Lh7gABztXT2uunV-1">
          <mxGeometry x="380" y="349" width="60" height="30" as="geometry" />
        </mxCell>
        <mxCell id="nzSl-Lh7gABztXT2uunV-12" value="" style="endArrow=classic;html=1;rounded=0;exitX=0.5;exitY=1;exitDx=0;exitDy=0;fontStyle=1;entryX=0.5;entryY=0;entryDx=0;entryDy=0;" edge="1" parent="nzSl-Lh7gABztXT2uunV-1" source="nzSl-Lh7gABztXT2uunV-10" target="nzSl-Lh7gABztXT2uunV-4">
          <mxGeometry width="50" height="50" relative="1" as="geometry">
            <mxPoint x="556" y="474" as="sourcePoint" />
            <mxPoint x="460" y="474" as="targetPoint" />
          </mxGeometry>
        </mxCell>
        <mxCell id="nzSl-Lh7gABztXT2uunV-13" value="" style="whiteSpace=wrap;html=1;aspect=fixed;fontStyle=1" vertex="1" parent="nzSl-Lh7gABztXT2uunV-1">
          <mxGeometry x="370" y="200" width="80" height="80" as="geometry" />
        </mxCell>
        <mxCell id="nzSl-Lh7gABztXT2uunV-14" value="3" style="text;html=1;align=center;verticalAlign=middle;whiteSpace=wrap;rounded=0;fontSize=16;fontStyle=1" vertex="1" parent="nzSl-Lh7gABztXT2uunV-1">
          <mxGeometry x="380" y="225" width="60" height="30" as="geometry" />
        </mxCell>
        <mxCell id="nzSl-Lh7gABztXT2uunV-15" value="" style="endArrow=classic;html=1;rounded=0;exitX=0.5;exitY=1;exitDx=0;exitDy=0;fontStyle=1" edge="1" parent="nzSl-Lh7gABztXT2uunV-1" source="nzSl-Lh7gABztXT2uunV-13">
          <mxGeometry width="50" height="50" relative="1" as="geometry">
            <mxPoint x="576" y="260" as="sourcePoint" />
            <mxPoint x="410" y="320" as="targetPoint" />
          </mxGeometry>
        </mxCell>
        <mxCell id="Ss2hdlgbOvuf_V11xwcF-0" value="AUX" style="text;html=1;align=center;verticalAlign=middle;whiteSpace=wrap;rounded=0;fontSize=16;" vertex="1" parent="nzSl-Lh7gABztXT2uunV-1">
          <mxGeometry x="480" y="110" width="60" height="30" as="geometry" />
        </mxCell>
        <mxCell id="Ss2hdlgbOvuf_V11xwcF-1" value="" style="endArrow=classic;html=1;rounded=0;" edge="1" parent="nzSl-Lh7gABztXT2uunV-1">
          <mxGeometry width="50" height="50" relative="1" as="geometry">
            <mxPoint x="500" y="140" as="sourcePoint" />
            <mxPoint x="430" y="190" as="targetPoint" />
          </mxGeometry>
        </mxCell>
      </root>
    </mxGraphModel>
  </diagram>
  <diagram name="Etapa 9.2" id="0UlwrhljYMhFbqx-VMJ6">
    <mxGraphModel dx="1434" dy="780" grid="1" gridSize="10" guides="1" tooltips="1" connect="1" arrows="1" fold="1" page="1" pageScale="1" pageWidth="827" pageHeight="1169" math="0" shadow="0">
      <root>
        <mxCell id="T-qRx11jR4Uy_L97hwxu-0" />
        <mxCell id="T-qRx11jR4Uy_L97hwxu-1" parent="T-qRx11jR4Uy_L97hwxu-0" />
        <mxCell id="T-qRx11jR4Uy_L97hwxu-2" value="" style="endArrow=classic;html=1;rounded=0;" edge="1" parent="T-qRx11jR4Uy_L97hwxu-1">
          <mxGeometry width="50" height="50" relative="1" as="geometry">
            <mxPoint x="279.5" y="300" as="sourcePoint" />
            <mxPoint x="350" y="360" as="targetPoint" />
          </mxGeometry>
        </mxCell>
        <mxCell id="T-qRx11jR4Uy_L97hwxu-3" value="TOPO" style="text;html=1;align=center;verticalAlign=middle;whiteSpace=wrap;rounded=0;fontSize=16;" vertex="1" parent="T-qRx11jR4Uy_L97hwxu-1">
          <mxGeometry x="250" y="270" width="60" height="30" as="geometry" />
        </mxCell>
        <mxCell id="T-qRx11jR4Uy_L97hwxu-4" value="" style="whiteSpace=wrap;html=1;aspect=fixed;fontStyle=1" vertex="1" parent="T-qRx11jR4Uy_L97hwxu-1">
          <mxGeometry x="370" y="444" width="80" height="80" as="geometry" />
        </mxCell>
        <mxCell id="T-qRx11jR4Uy_L97hwxu-5" value="6" style="text;html=1;align=center;verticalAlign=middle;whiteSpace=wrap;rounded=0;fontSize=16;fontStyle=1" vertex="1" parent="T-qRx11jR4Uy_L97hwxu-1">
          <mxGeometry x="380" y="469" width="60" height="30" as="geometry" />
        </mxCell>
        <mxCell id="T-qRx11jR4Uy_L97hwxu-6" value="" style="endArrow=none;html=1;rounded=0;fontStyle=1" edge="1" parent="T-qRx11jR4Uy_L97hwxu-1">
          <mxGeometry width="50" height="50" relative="1" as="geometry">
            <mxPoint x="370" y="564" as="sourcePoint" />
            <mxPoint x="450" y="564" as="targetPoint" />
          </mxGeometry>
        </mxCell>
        <mxCell id="T-qRx11jR4Uy_L97hwxu-7" value="" style="endArrow=none;html=1;rounded=0;fontStyle=1" edge="1" parent="T-qRx11jR4Uy_L97hwxu-1">
          <mxGeometry width="50" height="50" relative="1" as="geometry">
            <mxPoint x="380" y="574" as="sourcePoint" />
            <mxPoint x="440" y="574" as="targetPoint" />
            <Array as="points">
              <mxPoint x="420" y="574" />
            </Array>
          </mxGeometry>
        </mxCell>
        <mxCell id="T-qRx11jR4Uy_L97hwxu-8" value="" style="endArrow=none;html=1;rounded=0;fontStyle=1" edge="1" parent="T-qRx11jR4Uy_L97hwxu-1">
          <mxGeometry width="50" height="50" relative="1" as="geometry">
            <mxPoint x="390" y="584" as="sourcePoint" />
            <mxPoint x="430" y="584" as="targetPoint" />
          </mxGeometry>
        </mxCell>
        <mxCell id="T-qRx11jR4Uy_L97hwxu-9" value="" style="endArrow=classic;html=1;rounded=0;exitX=0.5;exitY=1;exitDx=0;exitDy=0;fontStyle=1" edge="1" parent="T-qRx11jR4Uy_L97hwxu-1" source="T-qRx11jR4Uy_L97hwxu-4">
          <mxGeometry width="50" height="50" relative="1" as="geometry">
            <mxPoint x="566" y="474" as="sourcePoint" />
            <mxPoint x="410" y="564" as="targetPoint" />
          </mxGeometry>
        </mxCell>
        <mxCell id="T-qRx11jR4Uy_L97hwxu-10" value="" style="whiteSpace=wrap;html=1;aspect=fixed;fontStyle=1" vertex="1" parent="T-qRx11jR4Uy_L97hwxu-1">
          <mxGeometry x="370" y="324" width="80" height="80" as="geometry" />
        </mxCell>
        <mxCell id="T-qRx11jR4Uy_L97hwxu-11" value="8" style="text;html=1;align=center;verticalAlign=middle;whiteSpace=wrap;rounded=0;fontSize=16;fontStyle=1" vertex="1" parent="T-qRx11jR4Uy_L97hwxu-1">
          <mxGeometry x="380" y="349" width="60" height="30" as="geometry" />
        </mxCell>
        <mxCell id="T-qRx11jR4Uy_L97hwxu-12" value="" style="endArrow=classic;html=1;rounded=0;exitX=0.5;exitY=1;exitDx=0;exitDy=0;fontStyle=1;entryX=0.5;entryY=0;entryDx=0;entryDy=0;" edge="1" parent="T-qRx11jR4Uy_L97hwxu-1" source="T-qRx11jR4Uy_L97hwxu-10" target="T-qRx11jR4Uy_L97hwxu-4">
          <mxGeometry width="50" height="50" relative="1" as="geometry">
            <mxPoint x="556" y="474" as="sourcePoint" />
            <mxPoint x="460" y="474" as="targetPoint" />
          </mxGeometry>
        </mxCell>
        <mxCell id="T-qRx11jR4Uy_L97hwxu-13" value="" style="whiteSpace=wrap;html=1;aspect=fixed;fontStyle=1" vertex="1" parent="T-qRx11jR4Uy_L97hwxu-1">
          <mxGeometry x="370" y="200" width="80" height="80" as="geometry" />
        </mxCell>
        <mxCell id="T-qRx11jR4Uy_L97hwxu-14" value="3" style="text;html=1;align=center;verticalAlign=middle;whiteSpace=wrap;rounded=0;fontSize=16;fontStyle=1" vertex="1" parent="T-qRx11jR4Uy_L97hwxu-1">
          <mxGeometry x="380" y="225" width="60" height="30" as="geometry" />
        </mxCell>
        <mxCell id="T-qRx11jR4Uy_L97hwxu-15" value="" style="endArrow=classic;html=1;rounded=0;exitX=0.5;exitY=1;exitDx=0;exitDy=0;fontStyle=1" edge="1" parent="T-qRx11jR4Uy_L97hwxu-1" source="T-qRx11jR4Uy_L97hwxu-13">
          <mxGeometry width="50" height="50" relative="1" as="geometry">
            <mxPoint x="576" y="260" as="sourcePoint" />
            <mxPoint x="410" y="320" as="targetPoint" />
          </mxGeometry>
        </mxCell>
        <mxCell id="T-qRx11jR4Uy_L97hwxu-16" value="AUX" style="text;html=1;align=center;verticalAlign=middle;whiteSpace=wrap;rounded=0;fontSize=16;" vertex="1" parent="T-qRx11jR4Uy_L97hwxu-1">
          <mxGeometry x="480" y="110" width="60" height="30" as="geometry" />
        </mxCell>
        <mxCell id="T-qRx11jR4Uy_L97hwxu-17" value="" style="endArrow=classic;html=1;rounded=0;" edge="1" parent="T-qRx11jR4Uy_L97hwxu-1">
          <mxGeometry width="50" height="50" relative="1" as="geometry">
            <mxPoint x="500" y="140" as="sourcePoint" />
            <mxPoint x="430" y="190" as="targetPoint" />
          </mxGeometry>
        </mxCell>
      </root>
    </mxGraphModel>
  </diagram>
  <diagram name="Etapa 9.3" id="tExH3zgx5LlcxJ-CIMuH">
    <mxGraphModel dx="1434" dy="780" grid="1" gridSize="10" guides="1" tooltips="1" connect="1" arrows="1" fold="1" page="1" pageScale="1" pageWidth="827" pageHeight="1169" math="0" shadow="0">
      <root>
        <mxCell id="lt4iSaAkeX1mwV72P-hO-0" />
        <mxCell id="lt4iSaAkeX1mwV72P-hO-1" parent="lt4iSaAkeX1mwV72P-hO-0" />
        <mxCell id="lt4iSaAkeX1mwV72P-hO-2" value="" style="endArrow=classic;html=1;rounded=0;" edge="1" parent="lt4iSaAkeX1mwV72P-hO-1">
          <mxGeometry width="50" height="50" relative="1" as="geometry">
            <mxPoint x="279.5" y="300" as="sourcePoint" />
            <mxPoint x="350" y="360" as="targetPoint" />
          </mxGeometry>
        </mxCell>
        <mxCell id="lt4iSaAkeX1mwV72P-hO-3" value="TOPO" style="text;html=1;align=center;verticalAlign=middle;whiteSpace=wrap;rounded=0;fontSize=16;" vertex="1" parent="lt4iSaAkeX1mwV72P-hO-1">
          <mxGeometry x="250" y="270" width="60" height="30" as="geometry" />
        </mxCell>
        <mxCell id="lt4iSaAkeX1mwV72P-hO-4" value="" style="whiteSpace=wrap;html=1;aspect=fixed;fontStyle=1" vertex="1" parent="lt4iSaAkeX1mwV72P-hO-1">
          <mxGeometry x="370" y="444" width="80" height="80" as="geometry" />
        </mxCell>
        <mxCell id="lt4iSaAkeX1mwV72P-hO-5" value="6" style="text;html=1;align=center;verticalAlign=middle;whiteSpace=wrap;rounded=0;fontSize=16;fontStyle=1" vertex="1" parent="lt4iSaAkeX1mwV72P-hO-1">
          <mxGeometry x="380" y="469" width="60" height="30" as="geometry" />
        </mxCell>
        <mxCell id="lt4iSaAkeX1mwV72P-hO-6" value="" style="endArrow=none;html=1;rounded=0;fontStyle=1" edge="1" parent="lt4iSaAkeX1mwV72P-hO-1">
          <mxGeometry width="50" height="50" relative="1" as="geometry">
            <mxPoint x="370" y="564" as="sourcePoint" />
            <mxPoint x="450" y="564" as="targetPoint" />
          </mxGeometry>
        </mxCell>
        <mxCell id="lt4iSaAkeX1mwV72P-hO-7" value="" style="endArrow=none;html=1;rounded=0;fontStyle=1" edge="1" parent="lt4iSaAkeX1mwV72P-hO-1">
          <mxGeometry width="50" height="50" relative="1" as="geometry">
            <mxPoint x="380" y="574" as="sourcePoint" />
            <mxPoint x="440" y="574" as="targetPoint" />
            <Array as="points">
              <mxPoint x="420" y="574" />
            </Array>
          </mxGeometry>
        </mxCell>
        <mxCell id="lt4iSaAkeX1mwV72P-hO-8" value="" style="endArrow=none;html=1;rounded=0;fontStyle=1" edge="1" parent="lt4iSaAkeX1mwV72P-hO-1">
          <mxGeometry width="50" height="50" relative="1" as="geometry">
            <mxPoint x="390" y="584" as="sourcePoint" />
            <mxPoint x="430" y="584" as="targetPoint" />
          </mxGeometry>
        </mxCell>
        <mxCell id="lt4iSaAkeX1mwV72P-hO-9" value="" style="endArrow=classic;html=1;rounded=0;exitX=0.5;exitY=1;exitDx=0;exitDy=0;fontStyle=1" edge="1" parent="lt4iSaAkeX1mwV72P-hO-1" source="lt4iSaAkeX1mwV72P-hO-4">
          <mxGeometry width="50" height="50" relative="1" as="geometry">
            <mxPoint x="566" y="474" as="sourcePoint" />
            <mxPoint x="410" y="564" as="targetPoint" />
          </mxGeometry>
        </mxCell>
        <mxCell id="lt4iSaAkeX1mwV72P-hO-10" value="" style="whiteSpace=wrap;html=1;aspect=fixed;fontStyle=1" vertex="1" parent="lt4iSaAkeX1mwV72P-hO-1">
          <mxGeometry x="370" y="324" width="80" height="80" as="geometry" />
        </mxCell>
        <mxCell id="lt4iSaAkeX1mwV72P-hO-11" value="8" style="text;html=1;align=center;verticalAlign=middle;whiteSpace=wrap;rounded=0;fontSize=16;fontStyle=1" vertex="1" parent="lt4iSaAkeX1mwV72P-hO-1">
          <mxGeometry x="380" y="349" width="60" height="30" as="geometry" />
        </mxCell>
        <mxCell id="lt4iSaAkeX1mwV72P-hO-12" value="" style="endArrow=classic;html=1;rounded=0;exitX=0.5;exitY=1;exitDx=0;exitDy=0;fontStyle=1;entryX=0.5;entryY=0;entryDx=0;entryDy=0;" edge="1" parent="lt4iSaAkeX1mwV72P-hO-1" source="lt4iSaAkeX1mwV72P-hO-10" target="lt4iSaAkeX1mwV72P-hO-4">
          <mxGeometry width="50" height="50" relative="1" as="geometry">
            <mxPoint x="556" y="474" as="sourcePoint" />
            <mxPoint x="460" y="474" as="targetPoint" />
          </mxGeometry>
        </mxCell>
        <mxCell id="lt4iSaAkeX1mwV72P-hO-13" value="" style="whiteSpace=wrap;html=1;aspect=fixed;fontStyle=1" vertex="1" parent="lt4iSaAkeX1mwV72P-hO-1">
          <mxGeometry x="370" y="200" width="80" height="80" as="geometry" />
        </mxCell>
        <mxCell id="lt4iSaAkeX1mwV72P-hO-14" value="42" style="text;html=1;align=center;verticalAlign=middle;whiteSpace=wrap;rounded=0;fontSize=16;fontStyle=1" vertex="1" parent="lt4iSaAkeX1mwV72P-hO-1">
          <mxGeometry x="380" y="225" width="60" height="30" as="geometry" />
        </mxCell>
        <mxCell id="lt4iSaAkeX1mwV72P-hO-15" value="" style="endArrow=classic;html=1;rounded=0;exitX=0.5;exitY=1;exitDx=0;exitDy=0;fontStyle=1" edge="1" parent="lt4iSaAkeX1mwV72P-hO-1" source="lt4iSaAkeX1mwV72P-hO-13">
          <mxGeometry width="50" height="50" relative="1" as="geometry">
            <mxPoint x="576" y="260" as="sourcePoint" />
            <mxPoint x="410" y="320" as="targetPoint" />
          </mxGeometry>
        </mxCell>
        <mxCell id="lt4iSaAkeX1mwV72P-hO-16" value="AUX" style="text;html=1;align=center;verticalAlign=middle;whiteSpace=wrap;rounded=0;fontSize=16;" vertex="1" parent="lt4iSaAkeX1mwV72P-hO-1">
          <mxGeometry x="480" y="110" width="60" height="30" as="geometry" />
        </mxCell>
        <mxCell id="lt4iSaAkeX1mwV72P-hO-17" value="" style="endArrow=classic;html=1;rounded=0;" edge="1" parent="lt4iSaAkeX1mwV72P-hO-1">
          <mxGeometry width="50" height="50" relative="1" as="geometry">
            <mxPoint x="500" y="140" as="sourcePoint" />
            <mxPoint x="430" y="190" as="targetPoint" />
          </mxGeometry>
        </mxCell>
        <mxCell id="ua1Uxj4J9dvToXfhrTvC-0" value="" style="verticalLabelPosition=bottom;verticalAlign=top;html=1;shape=mxgraph.basic.x;fillColor=#FF7112;strokeColor=#b85450;gradientColor=none;" vertex="1" parent="lt4iSaAkeX1mwV72P-hO-1">
          <mxGeometry x="370" y="208.12" width="80" height="63.75" as="geometry" />
        </mxCell>
      </root>
    </mxGraphModel>
  </diagram>
  <diagram name="Etapa 9.4" id="BHdR26xM1zTswjomESaj">
    <mxGraphModel dx="1434" dy="780" grid="1" gridSize="10" guides="1" tooltips="1" connect="1" arrows="1" fold="1" page="1" pageScale="1" pageWidth="827" pageHeight="1169" math="0" shadow="0">
      <root>
        <mxCell id="0Nxm2ooi-3DpMea8jY09-0" />
        <mxCell id="0Nxm2ooi-3DpMea8jY09-1" parent="0Nxm2ooi-3DpMea8jY09-0" />
        <mxCell id="0Nxm2ooi-3DpMea8jY09-2" value="" style="endArrow=classic;html=1;rounded=0;" edge="1" parent="0Nxm2ooi-3DpMea8jY09-1">
          <mxGeometry width="50" height="50" relative="1" as="geometry">
            <mxPoint x="410" y="140" as="sourcePoint" />
            <mxPoint x="410" y="200" as="targetPoint" />
          </mxGeometry>
        </mxCell>
        <mxCell id="0Nxm2ooi-3DpMea8jY09-3" value="TOPO" style="text;html=1;align=center;verticalAlign=middle;whiteSpace=wrap;rounded=0;fontSize=16;" vertex="1" parent="0Nxm2ooi-3DpMea8jY09-1">
          <mxGeometry x="380" y="110" width="60" height="30" as="geometry" />
        </mxCell>
        <mxCell id="0Nxm2ooi-3DpMea8jY09-4" value="" style="whiteSpace=wrap;html=1;aspect=fixed;fontStyle=1" vertex="1" parent="0Nxm2ooi-3DpMea8jY09-1">
          <mxGeometry x="370" y="320" width="80" height="80" as="geometry" />
        </mxCell>
        <mxCell id="0Nxm2ooi-3DpMea8jY09-5" value="6" style="text;html=1;align=center;verticalAlign=middle;whiteSpace=wrap;rounded=0;fontSize=16;fontStyle=1" vertex="1" parent="0Nxm2ooi-3DpMea8jY09-1">
          <mxGeometry x="380" y="345" width="60" height="30" as="geometry" />
        </mxCell>
        <mxCell id="0Nxm2ooi-3DpMea8jY09-6" value="" style="endArrow=none;html=1;rounded=0;fontStyle=1" edge="1" parent="0Nxm2ooi-3DpMea8jY09-1">
          <mxGeometry width="50" height="50" relative="1" as="geometry">
            <mxPoint x="370" y="440" as="sourcePoint" />
            <mxPoint x="450" y="440" as="targetPoint" />
          </mxGeometry>
        </mxCell>
        <mxCell id="0Nxm2ooi-3DpMea8jY09-7" value="" style="endArrow=none;html=1;rounded=0;fontStyle=1" edge="1" parent="0Nxm2ooi-3DpMea8jY09-1">
          <mxGeometry width="50" height="50" relative="1" as="geometry">
            <mxPoint x="380" y="450" as="sourcePoint" />
            <mxPoint x="440" y="450" as="targetPoint" />
            <Array as="points">
              <mxPoint x="420" y="450" />
            </Array>
          </mxGeometry>
        </mxCell>
        <mxCell id="0Nxm2ooi-3DpMea8jY09-8" value="" style="endArrow=none;html=1;rounded=0;fontStyle=1" edge="1" parent="0Nxm2ooi-3DpMea8jY09-1">
          <mxGeometry width="50" height="50" relative="1" as="geometry">
            <mxPoint x="390" y="460" as="sourcePoint" />
            <mxPoint x="430" y="460" as="targetPoint" />
          </mxGeometry>
        </mxCell>
        <mxCell id="0Nxm2ooi-3DpMea8jY09-9" value="" style="endArrow=classic;html=1;rounded=0;exitX=0.5;exitY=1;exitDx=0;exitDy=0;fontStyle=1" edge="1" parent="0Nxm2ooi-3DpMea8jY09-1" source="0Nxm2ooi-3DpMea8jY09-4">
          <mxGeometry width="50" height="50" relative="1" as="geometry">
            <mxPoint x="566" y="350" as="sourcePoint" />
            <mxPoint x="410" y="440" as="targetPoint" />
          </mxGeometry>
        </mxCell>
        <mxCell id="0Nxm2ooi-3DpMea8jY09-10" value="" style="whiteSpace=wrap;html=1;aspect=fixed;fontStyle=1" vertex="1" parent="0Nxm2ooi-3DpMea8jY09-1">
          <mxGeometry x="370" y="200" width="80" height="80" as="geometry" />
        </mxCell>
        <mxCell id="0Nxm2ooi-3DpMea8jY09-11" value="8" style="text;html=1;align=center;verticalAlign=middle;whiteSpace=wrap;rounded=0;fontSize=16;fontStyle=1" vertex="1" parent="0Nxm2ooi-3DpMea8jY09-1">
          <mxGeometry x="380" y="225" width="60" height="30" as="geometry" />
        </mxCell>
        <mxCell id="0Nxm2ooi-3DpMea8jY09-12" value="" style="endArrow=classic;html=1;rounded=0;exitX=0.5;exitY=1;exitDx=0;exitDy=0;fontStyle=1;entryX=0.5;entryY=0;entryDx=0;entryDy=0;" edge="1" parent="0Nxm2ooi-3DpMea8jY09-1" source="0Nxm2ooi-3DpMea8jY09-10" target="0Nxm2ooi-3DpMea8jY09-4">
          <mxGeometry width="50" height="50" relative="1" as="geometry">
            <mxPoint x="556" y="350" as="sourcePoint" />
            <mxPoint x="460" y="350" as="targetPoint" />
          </mxGeometry>
        </mxCell>
      </root>
    </mxGraphModel>
  </diagram>
  <diagram name="Etapa 10.1" id="Ja6pdiVNGSaD5d3xDInr">
    <mxGraphModel dx="1434" dy="780" grid="1" gridSize="10" guides="1" tooltips="1" connect="1" arrows="1" fold="1" page="1" pageScale="1" pageWidth="827" pageHeight="1169" math="0" shadow="0">
      <root>
        <mxCell id="FqM6S94CPrnLLU7iDp3C-0" />
        <mxCell id="FqM6S94CPrnLLU7iDp3C-1" parent="FqM6S94CPrnLLU7iDp3C-0" />
        <mxCell id="FqM6S94CPrnLLU7iDp3C-2" value="" style="endArrow=classic;html=1;rounded=0;" edge="1" parent="FqM6S94CPrnLLU7iDp3C-1">
          <mxGeometry width="50" height="50" relative="1" as="geometry">
            <mxPoint x="410" y="140" as="sourcePoint" />
            <mxPoint x="410" y="200" as="targetPoint" />
          </mxGeometry>
        </mxCell>
        <mxCell id="FqM6S94CPrnLLU7iDp3C-3" value="TOPO" style="text;html=1;align=center;verticalAlign=middle;whiteSpace=wrap;rounded=0;fontSize=16;" vertex="1" parent="FqM6S94CPrnLLU7iDp3C-1">
          <mxGeometry x="380" y="110" width="60" height="30" as="geometry" />
        </mxCell>
        <mxCell id="FqM6S94CPrnLLU7iDp3C-4" value="" style="whiteSpace=wrap;html=1;aspect=fixed;fontStyle=1" vertex="1" parent="FqM6S94CPrnLLU7iDp3C-1">
          <mxGeometry x="370" y="320" width="80" height="80" as="geometry" />
        </mxCell>
        <mxCell id="FqM6S94CPrnLLU7iDp3C-5" value="6" style="text;html=1;align=center;verticalAlign=middle;whiteSpace=wrap;rounded=0;fontSize=16;fontStyle=1" vertex="1" parent="FqM6S94CPrnLLU7iDp3C-1">
          <mxGeometry x="380" y="345" width="60" height="30" as="geometry" />
        </mxCell>
        <mxCell id="FqM6S94CPrnLLU7iDp3C-6" value="" style="endArrow=none;html=1;rounded=0;fontStyle=1" edge="1" parent="FqM6S94CPrnLLU7iDp3C-1">
          <mxGeometry width="50" height="50" relative="1" as="geometry">
            <mxPoint x="370" y="440" as="sourcePoint" />
            <mxPoint x="450" y="440" as="targetPoint" />
          </mxGeometry>
        </mxCell>
        <mxCell id="FqM6S94CPrnLLU7iDp3C-7" value="" style="endArrow=none;html=1;rounded=0;fontStyle=1" edge="1" parent="FqM6S94CPrnLLU7iDp3C-1">
          <mxGeometry width="50" height="50" relative="1" as="geometry">
            <mxPoint x="380" y="450" as="sourcePoint" />
            <mxPoint x="440" y="450" as="targetPoint" />
            <Array as="points">
              <mxPoint x="420" y="450" />
            </Array>
          </mxGeometry>
        </mxCell>
        <mxCell id="FqM6S94CPrnLLU7iDp3C-8" value="" style="endArrow=none;html=1;rounded=0;fontStyle=1" edge="1" parent="FqM6S94CPrnLLU7iDp3C-1">
          <mxGeometry width="50" height="50" relative="1" as="geometry">
            <mxPoint x="390" y="460" as="sourcePoint" />
            <mxPoint x="430" y="460" as="targetPoint" />
          </mxGeometry>
        </mxCell>
        <mxCell id="FqM6S94CPrnLLU7iDp3C-9" value="" style="endArrow=classic;html=1;rounded=0;exitX=0.5;exitY=1;exitDx=0;exitDy=0;fontStyle=1" edge="1" parent="FqM6S94CPrnLLU7iDp3C-1" source="FqM6S94CPrnLLU7iDp3C-4">
          <mxGeometry width="50" height="50" relative="1" as="geometry">
            <mxPoint x="566" y="350" as="sourcePoint" />
            <mxPoint x="410" y="440" as="targetPoint" />
          </mxGeometry>
        </mxCell>
        <mxCell id="FqM6S94CPrnLLU7iDp3C-10" value="" style="whiteSpace=wrap;html=1;aspect=fixed;fontStyle=1" vertex="1" parent="FqM6S94CPrnLLU7iDp3C-1">
          <mxGeometry x="370" y="200" width="80" height="80" as="geometry" />
        </mxCell>
        <mxCell id="FqM6S94CPrnLLU7iDp3C-11" value="8" style="text;html=1;align=center;verticalAlign=middle;whiteSpace=wrap;rounded=0;fontSize=16;fontStyle=1" vertex="1" parent="FqM6S94CPrnLLU7iDp3C-1">
          <mxGeometry x="380" y="225" width="60" height="30" as="geometry" />
        </mxCell>
        <mxCell id="FqM6S94CPrnLLU7iDp3C-12" value="" style="endArrow=classic;html=1;rounded=0;exitX=0.5;exitY=1;exitDx=0;exitDy=0;fontStyle=1;entryX=0.5;entryY=0;entryDx=0;entryDy=0;" edge="1" parent="FqM6S94CPrnLLU7iDp3C-1" source="FqM6S94CPrnLLU7iDp3C-10" target="FqM6S94CPrnLLU7iDp3C-4">
          <mxGeometry width="50" height="50" relative="1" as="geometry">
            <mxPoint x="556" y="350" as="sourcePoint" />
            <mxPoint x="460" y="350" as="targetPoint" />
          </mxGeometry>
        </mxCell>
        <mxCell id="FqM6S94CPrnLLU7iDp3C-13" value="AUX" style="text;html=1;align=center;verticalAlign=middle;whiteSpace=wrap;rounded=0;fontSize=16;" vertex="1" parent="FqM6S94CPrnLLU7iDp3C-1">
          <mxGeometry x="480" y="110" width="60" height="30" as="geometry" />
        </mxCell>
        <mxCell id="FqM6S94CPrnLLU7iDp3C-14" value="" style="endArrow=classic;html=1;rounded=0;" edge="1" parent="FqM6S94CPrnLLU7iDp3C-1">
          <mxGeometry width="50" height="50" relative="1" as="geometry">
            <mxPoint x="500" y="140" as="sourcePoint" />
            <mxPoint x="430" y="190" as="targetPoint" />
          </mxGeometry>
        </mxCell>
      </root>
    </mxGraphModel>
  </diagram>
  <diagram name="Etapa 10.2" id="po0mKtJhzHp1inUnaToC">
    <mxGraphModel dx="1434" dy="780" grid="1" gridSize="10" guides="1" tooltips="1" connect="1" arrows="1" fold="1" page="1" pageScale="1" pageWidth="827" pageHeight="1169" math="0" shadow="0">
      <root>
        <mxCell id="Jrj7s2MogFYw5Pn4MYnA-0" />
        <mxCell id="Jrj7s2MogFYw5Pn4MYnA-1" parent="Jrj7s2MogFYw5Pn4MYnA-0" />
        <mxCell id="Jrj7s2MogFYw5Pn4MYnA-2" value="" style="endArrow=classic;html=1;rounded=0;" edge="1" parent="Jrj7s2MogFYw5Pn4MYnA-1">
          <mxGeometry width="50" height="50" relative="1" as="geometry">
            <mxPoint x="299.5" y="300" as="sourcePoint" />
            <mxPoint x="360" y="360" as="targetPoint" />
          </mxGeometry>
        </mxCell>
        <mxCell id="Jrj7s2MogFYw5Pn4MYnA-3" value="TOPO" style="text;html=1;align=center;verticalAlign=middle;whiteSpace=wrap;rounded=0;fontSize=16;" vertex="1" parent="Jrj7s2MogFYw5Pn4MYnA-1">
          <mxGeometry x="270" y="270" width="60" height="30" as="geometry" />
        </mxCell>
        <mxCell id="Jrj7s2MogFYw5Pn4MYnA-4" value="" style="whiteSpace=wrap;html=1;aspect=fixed;fontStyle=1" vertex="1" parent="Jrj7s2MogFYw5Pn4MYnA-1">
          <mxGeometry x="370" y="320" width="80" height="80" as="geometry" />
        </mxCell>
        <mxCell id="Jrj7s2MogFYw5Pn4MYnA-5" value="6" style="text;html=1;align=center;verticalAlign=middle;whiteSpace=wrap;rounded=0;fontSize=16;fontStyle=1" vertex="1" parent="Jrj7s2MogFYw5Pn4MYnA-1">
          <mxGeometry x="380" y="345" width="60" height="30" as="geometry" />
        </mxCell>
        <mxCell id="Jrj7s2MogFYw5Pn4MYnA-6" value="" style="endArrow=none;html=1;rounded=0;fontStyle=1" edge="1" parent="Jrj7s2MogFYw5Pn4MYnA-1">
          <mxGeometry width="50" height="50" relative="1" as="geometry">
            <mxPoint x="370" y="440" as="sourcePoint" />
            <mxPoint x="450" y="440" as="targetPoint" />
          </mxGeometry>
        </mxCell>
        <mxCell id="Jrj7s2MogFYw5Pn4MYnA-7" value="" style="endArrow=none;html=1;rounded=0;fontStyle=1" edge="1" parent="Jrj7s2MogFYw5Pn4MYnA-1">
          <mxGeometry width="50" height="50" relative="1" as="geometry">
            <mxPoint x="380" y="450" as="sourcePoint" />
            <mxPoint x="440" y="450" as="targetPoint" />
            <Array as="points">
              <mxPoint x="420" y="450" />
            </Array>
          </mxGeometry>
        </mxCell>
        <mxCell id="Jrj7s2MogFYw5Pn4MYnA-8" value="" style="endArrow=none;html=1;rounded=0;fontStyle=1" edge="1" parent="Jrj7s2MogFYw5Pn4MYnA-1">
          <mxGeometry width="50" height="50" relative="1" as="geometry">
            <mxPoint x="390" y="460" as="sourcePoint" />
            <mxPoint x="430" y="460" as="targetPoint" />
          </mxGeometry>
        </mxCell>
        <mxCell id="Jrj7s2MogFYw5Pn4MYnA-9" value="" style="endArrow=classic;html=1;rounded=0;exitX=0.5;exitY=1;exitDx=0;exitDy=0;fontStyle=1" edge="1" parent="Jrj7s2MogFYw5Pn4MYnA-1" source="Jrj7s2MogFYw5Pn4MYnA-4">
          <mxGeometry width="50" height="50" relative="1" as="geometry">
            <mxPoint x="566" y="350" as="sourcePoint" />
            <mxPoint x="410" y="440" as="targetPoint" />
          </mxGeometry>
        </mxCell>
        <mxCell id="Jrj7s2MogFYw5Pn4MYnA-10" value="" style="whiteSpace=wrap;html=1;aspect=fixed;fontStyle=1" vertex="1" parent="Jrj7s2MogFYw5Pn4MYnA-1">
          <mxGeometry x="370" y="200" width="80" height="80" as="geometry" />
        </mxCell>
        <mxCell id="Jrj7s2MogFYw5Pn4MYnA-11" value="8" style="text;html=1;align=center;verticalAlign=middle;whiteSpace=wrap;rounded=0;fontSize=16;fontStyle=1" vertex="1" parent="Jrj7s2MogFYw5Pn4MYnA-1">
          <mxGeometry x="380" y="225" width="60" height="30" as="geometry" />
        </mxCell>
        <mxCell id="Jrj7s2MogFYw5Pn4MYnA-12" value="" style="endArrow=classic;html=1;rounded=0;exitX=0.5;exitY=1;exitDx=0;exitDy=0;fontStyle=1;entryX=0.5;entryY=0;entryDx=0;entryDy=0;" edge="1" parent="Jrj7s2MogFYw5Pn4MYnA-1" source="Jrj7s2MogFYw5Pn4MYnA-10" target="Jrj7s2MogFYw5Pn4MYnA-4">
          <mxGeometry width="50" height="50" relative="1" as="geometry">
            <mxPoint x="556" y="350" as="sourcePoint" />
            <mxPoint x="460" y="350" as="targetPoint" />
          </mxGeometry>
        </mxCell>
        <mxCell id="Jrj7s2MogFYw5Pn4MYnA-13" value="AUX" style="text;html=1;align=center;verticalAlign=middle;whiteSpace=wrap;rounded=0;fontSize=16;" vertex="1" parent="Jrj7s2MogFYw5Pn4MYnA-1">
          <mxGeometry x="480" y="110" width="60" height="30" as="geometry" />
        </mxCell>
        <mxCell id="Jrj7s2MogFYw5Pn4MYnA-14" value="" style="endArrow=classic;html=1;rounded=0;" edge="1" parent="Jrj7s2MogFYw5Pn4MYnA-1">
          <mxGeometry width="50" height="50" relative="1" as="geometry">
            <mxPoint x="500" y="140" as="sourcePoint" />
            <mxPoint x="430" y="190" as="targetPoint" />
          </mxGeometry>
        </mxCell>
      </root>
    </mxGraphModel>
  </diagram>
  <diagram name="Etapa 10.3" id="O9MtdwmHgBN7i_zEzvHj">
    <mxGraphModel dx="1434" dy="780" grid="1" gridSize="10" guides="1" tooltips="1" connect="1" arrows="1" fold="1" page="1" pageScale="1" pageWidth="827" pageHeight="1169" math="0" shadow="0">
      <root>
        <mxCell id="amfwQh0tjWvDso-V00UL-0" />
        <mxCell id="amfwQh0tjWvDso-V00UL-1" parent="amfwQh0tjWvDso-V00UL-0" />
        <mxCell id="amfwQh0tjWvDso-V00UL-2" value="" style="endArrow=classic;html=1;rounded=0;" edge="1" parent="amfwQh0tjWvDso-V00UL-1">
          <mxGeometry width="50" height="50" relative="1" as="geometry">
            <mxPoint x="299.5" y="300" as="sourcePoint" />
            <mxPoint x="360" y="360" as="targetPoint" />
          </mxGeometry>
        </mxCell>
        <mxCell id="amfwQh0tjWvDso-V00UL-3" value="TOPO" style="text;html=1;align=center;verticalAlign=middle;whiteSpace=wrap;rounded=0;fontSize=16;" vertex="1" parent="amfwQh0tjWvDso-V00UL-1">
          <mxGeometry x="270" y="270" width="60" height="30" as="geometry" />
        </mxCell>
        <mxCell id="amfwQh0tjWvDso-V00UL-4" value="" style="whiteSpace=wrap;html=1;aspect=fixed;fontStyle=1" vertex="1" parent="amfwQh0tjWvDso-V00UL-1">
          <mxGeometry x="370" y="320" width="80" height="80" as="geometry" />
        </mxCell>
        <mxCell id="amfwQh0tjWvDso-V00UL-5" value="6" style="text;html=1;align=center;verticalAlign=middle;whiteSpace=wrap;rounded=0;fontSize=16;fontStyle=1" vertex="1" parent="amfwQh0tjWvDso-V00UL-1">
          <mxGeometry x="380" y="345" width="60" height="30" as="geometry" />
        </mxCell>
        <mxCell id="amfwQh0tjWvDso-V00UL-6" value="" style="endArrow=none;html=1;rounded=0;fontStyle=1" edge="1" parent="amfwQh0tjWvDso-V00UL-1">
          <mxGeometry width="50" height="50" relative="1" as="geometry">
            <mxPoint x="370" y="440" as="sourcePoint" />
            <mxPoint x="450" y="440" as="targetPoint" />
          </mxGeometry>
        </mxCell>
        <mxCell id="amfwQh0tjWvDso-V00UL-7" value="" style="endArrow=none;html=1;rounded=0;fontStyle=1" edge="1" parent="amfwQh0tjWvDso-V00UL-1">
          <mxGeometry width="50" height="50" relative="1" as="geometry">
            <mxPoint x="380" y="450" as="sourcePoint" />
            <mxPoint x="440" y="450" as="targetPoint" />
            <Array as="points">
              <mxPoint x="420" y="450" />
            </Array>
          </mxGeometry>
        </mxCell>
        <mxCell id="amfwQh0tjWvDso-V00UL-8" value="" style="endArrow=none;html=1;rounded=0;fontStyle=1" edge="1" parent="amfwQh0tjWvDso-V00UL-1">
          <mxGeometry width="50" height="50" relative="1" as="geometry">
            <mxPoint x="390" y="460" as="sourcePoint" />
            <mxPoint x="430" y="460" as="targetPoint" />
          </mxGeometry>
        </mxCell>
        <mxCell id="amfwQh0tjWvDso-V00UL-9" value="" style="endArrow=classic;html=1;rounded=0;exitX=0.5;exitY=1;exitDx=0;exitDy=0;fontStyle=1" edge="1" parent="amfwQh0tjWvDso-V00UL-1" source="amfwQh0tjWvDso-V00UL-4">
          <mxGeometry width="50" height="50" relative="1" as="geometry">
            <mxPoint x="566" y="350" as="sourcePoint" />
            <mxPoint x="410" y="440" as="targetPoint" />
          </mxGeometry>
        </mxCell>
        <mxCell id="amfwQh0tjWvDso-V00UL-10" value="" style="whiteSpace=wrap;html=1;aspect=fixed;fontStyle=1" vertex="1" parent="amfwQh0tjWvDso-V00UL-1">
          <mxGeometry x="370" y="200" width="80" height="80" as="geometry" />
        </mxCell>
        <mxCell id="amfwQh0tjWvDso-V00UL-11" value="15" style="text;html=1;align=center;verticalAlign=middle;whiteSpace=wrap;rounded=0;fontSize=16;fontStyle=1" vertex="1" parent="amfwQh0tjWvDso-V00UL-1">
          <mxGeometry x="380" y="225" width="60" height="30" as="geometry" />
        </mxCell>
        <mxCell id="amfwQh0tjWvDso-V00UL-12" value="" style="endArrow=classic;html=1;rounded=0;exitX=0.5;exitY=1;exitDx=0;exitDy=0;fontStyle=1;entryX=0.5;entryY=0;entryDx=0;entryDy=0;" edge="1" parent="amfwQh0tjWvDso-V00UL-1" source="amfwQh0tjWvDso-V00UL-10" target="amfwQh0tjWvDso-V00UL-4">
          <mxGeometry width="50" height="50" relative="1" as="geometry">
            <mxPoint x="556" y="350" as="sourcePoint" />
            <mxPoint x="460" y="350" as="targetPoint" />
          </mxGeometry>
        </mxCell>
        <mxCell id="amfwQh0tjWvDso-V00UL-13" value="AUX" style="text;html=1;align=center;verticalAlign=middle;whiteSpace=wrap;rounded=0;fontSize=16;" vertex="1" parent="amfwQh0tjWvDso-V00UL-1">
          <mxGeometry x="480" y="110" width="60" height="30" as="geometry" />
        </mxCell>
        <mxCell id="amfwQh0tjWvDso-V00UL-14" value="" style="endArrow=classic;html=1;rounded=0;" edge="1" parent="amfwQh0tjWvDso-V00UL-1">
          <mxGeometry width="50" height="50" relative="1" as="geometry">
            <mxPoint x="500" y="140" as="sourcePoint" />
            <mxPoint x="430" y="190" as="targetPoint" />
          </mxGeometry>
        </mxCell>
        <mxCell id="amfwQh0tjWvDso-V00UL-15" value="" style="verticalLabelPosition=bottom;verticalAlign=top;html=1;shape=mxgraph.basic.x;fillColor=#FF7112;strokeColor=#b85450;gradientColor=none;" vertex="1" parent="amfwQh0tjWvDso-V00UL-1">
          <mxGeometry x="370" y="208.12" width="80" height="63.75" as="geometry" />
        </mxCell>
      </root>
    </mxGraphModel>
  </diagram>
  <diagram name="Etapa 10.4" id="Fu6opcSwmoU9eRH0Pb5A">
    <mxGraphModel dx="1434" dy="780" grid="1" gridSize="10" guides="1" tooltips="1" connect="1" arrows="1" fold="1" page="1" pageScale="1" pageWidth="827" pageHeight="1169" math="0" shadow="0">
      <root>
        <mxCell id="ZQB-j11aqc0hGGOfdYX1-0" />
        <mxCell id="ZQB-j11aqc0hGGOfdYX1-1" parent="ZQB-j11aqc0hGGOfdYX1-0" />
        <mxCell id="ZQB-j11aqc0hGGOfdYX1-2" value="" style="endArrow=classic;html=1;rounded=0;" edge="1" parent="ZQB-j11aqc0hGGOfdYX1-1">
          <mxGeometry width="50" height="50" relative="1" as="geometry">
            <mxPoint x="410" y="250" as="sourcePoint" />
            <mxPoint x="410" y="310" as="targetPoint" />
          </mxGeometry>
        </mxCell>
        <mxCell id="ZQB-j11aqc0hGGOfdYX1-3" value="TOPO" style="text;html=1;align=center;verticalAlign=middle;whiteSpace=wrap;rounded=0;fontSize=16;" vertex="1" parent="ZQB-j11aqc0hGGOfdYX1-1">
          <mxGeometry x="380" y="220" width="60" height="30" as="geometry" />
        </mxCell>
        <mxCell id="ZQB-j11aqc0hGGOfdYX1-4" value="" style="whiteSpace=wrap;html=1;aspect=fixed;fontStyle=1" vertex="1" parent="ZQB-j11aqc0hGGOfdYX1-1">
          <mxGeometry x="370" y="320" width="80" height="80" as="geometry" />
        </mxCell>
        <mxCell id="ZQB-j11aqc0hGGOfdYX1-5" value="6" style="text;html=1;align=center;verticalAlign=middle;whiteSpace=wrap;rounded=0;fontSize=16;fontStyle=1" vertex="1" parent="ZQB-j11aqc0hGGOfdYX1-1">
          <mxGeometry x="380" y="345" width="60" height="30" as="geometry" />
        </mxCell>
        <mxCell id="ZQB-j11aqc0hGGOfdYX1-6" value="" style="endArrow=none;html=1;rounded=0;fontStyle=1" edge="1" parent="ZQB-j11aqc0hGGOfdYX1-1">
          <mxGeometry width="50" height="50" relative="1" as="geometry">
            <mxPoint x="370" y="440" as="sourcePoint" />
            <mxPoint x="450" y="440" as="targetPoint" />
          </mxGeometry>
        </mxCell>
        <mxCell id="ZQB-j11aqc0hGGOfdYX1-7" value="" style="endArrow=none;html=1;rounded=0;fontStyle=1" edge="1" parent="ZQB-j11aqc0hGGOfdYX1-1">
          <mxGeometry width="50" height="50" relative="1" as="geometry">
            <mxPoint x="380" y="450" as="sourcePoint" />
            <mxPoint x="440" y="450" as="targetPoint" />
            <Array as="points">
              <mxPoint x="420" y="450" />
            </Array>
          </mxGeometry>
        </mxCell>
        <mxCell id="ZQB-j11aqc0hGGOfdYX1-8" value="" style="endArrow=none;html=1;rounded=0;fontStyle=1" edge="1" parent="ZQB-j11aqc0hGGOfdYX1-1">
          <mxGeometry width="50" height="50" relative="1" as="geometry">
            <mxPoint x="390" y="460" as="sourcePoint" />
            <mxPoint x="430" y="460" as="targetPoint" />
          </mxGeometry>
        </mxCell>
        <mxCell id="ZQB-j11aqc0hGGOfdYX1-9" value="" style="endArrow=classic;html=1;rounded=0;exitX=0.5;exitY=1;exitDx=0;exitDy=0;fontStyle=1" edge="1" parent="ZQB-j11aqc0hGGOfdYX1-1" source="ZQB-j11aqc0hGGOfdYX1-4">
          <mxGeometry width="50" height="50" relative="1" as="geometry">
            <mxPoint x="566" y="350" as="sourcePoint" />
            <mxPoint x="410" y="440" as="targetPoint" />
          </mxGeometry>
        </mxCell>
      </root>
    </mxGraphModel>
  </diagram>
</mxfile>
